<?xml version="1.0" encoding="utf-8"?>
<!-- Generator: Adobe Illustrator 21.1.0, SVG Export Plug-In . SVG Version: 6.00 Build 0)  -->
<svg version="1.1" id="Calque_1" xmlns="http://www.w3.org/2000/svg" xmlns:xlink="http://www.w3.org/1999/xlink" x="0px" y="0px"
	 viewBox="0 0 120 120" style="enable-background:new 0 0 120 120;" xml:space="preserve">
<style type="text/css">
	.st0{fill:none;stroke:#4F7ABD;stroke-miterlimit:10;}
</style>
<g>
	<path class="st0" d="M60,38.8c-6.2,0-9.6,3.2-9.6,9.4c0.1,8.5,3.7,13.6,9.6,13.5c0,0,9.6,0.4,9.6-13.5C69.6,42,66.3,38.8,60,38.8
		L60,38.8z M60,38.8"/>
	<path class="st0" d="M93.2,83.7c-1.2,0-2.4,0.2-3.5,0.6l-4.6-4.6c4.3-5.4,6.8-12.3,6.8-19.7c0-7.4-2.6-14.3-6.8-19.7l4.6-4.6
		c1.1,0.4,2.3,0.6,3.5,0.6c5.9,0,10.6-4.8,10.6-10.6c0-5.9-4.8-10.6-10.6-10.6c-5.9,0-10.6,4.8-10.6,10.6c0,1.2,0.2,2.4,0.6,3.5
		L78.4,34c-5.2-3.7-11.6-5.9-18.4-5.9c-6.9,0-13.2,2.2-18.4,5.9l-4.8-4.8c0.4-1.1,0.6-2.3,0.6-3.5c0-5.9-4.8-10.6-10.6-10.6
		c-5.9,0-10.6,4.8-10.6,10.6c0,5.9,4.8,10.6,10.6,10.6c1.2,0,2.4-0.2,3.5-0.6l4.6,4.6c-4.3,5.4-6.8,12.3-6.8,19.7
		c0,7.4,2.6,14.3,6.8,19.7l-4.6,4.6c-1.1-0.4-2.3-0.6-3.5-0.6c-5.9,0-10.6,4.8-10.6,10.6c0,5.9,4.8,10.6,10.6,10.6
		c5.9,0,10.6-4.8,10.6-10.6c0-1.2-0.2-2.4-0.6-3.5l4.8-4.8c5.2,3.7,11.6,5.9,18.4,5.9c6.9,0,13.2-2.2,18.4-5.9l4.8,4.8
		c-0.4,1.1-0.6,2.3-0.6,3.5c0,5.9,4.8,10.6,10.6,10.6c5.9,0,10.6-4.8,10.6-10.6C103.9,88.5,99.1,83.7,93.2,83.7L93.2,83.7z
		 M79.8,76.4c-0.4-3.5-1.1-7.6-2.9-8.3l-9.6-3.8l-2.2-1.9c-0.6-0.5-1.5-0.5-2,0.1L60,65.6l-3.1-3.1c-0.5-0.5-1.4-0.6-2-0.1l-2.2,1.9
		l-9.6,3.8c-1.8,0.7-2.6,4.9-2.9,8.3C36.5,72,34.2,66.2,34.2,60c0-14.2,11.5-25.8,25.8-25.8c14.2,0,25.8,11.5,25.8,25.8
		C85.8,66.2,83.5,72,79.8,76.4L79.8,76.4z M79.8,76.4"/>
</g>
</svg>
