<?xml version="1.0" encoding="utf-8"?>
<!-- Generator: Adobe Illustrator 21.1.0, SVG Export Plug-In . SVG Version: 6.00 Build 0)  -->
<svg version="1.1" id="Calque_1" xmlns="http://www.w3.org/2000/svg" xmlns:xlink="http://www.w3.org/1999/xlink" x="0px" y="0px"
	 viewBox="0 0 800 300" style="enable-background:new 0 0 800 300;" xml:space="preserve">
<style type="text/css">
	.st0{display:none;}
	.st1{display:inline;}
	.st2{fill:url(#SVGID_1_);}
	.st3{fill:url(#SVGID_2_);}
	.st4{fill:url(#SVGID_3_);}
	.st5{fill:url(#SVGID_4_);}
	.st6{fill:url(#SVGID_5_);}
	.st7{fill:url(#SVGID_6_);}
	.st8{fill:url(#SVGID_7_);}
	.st9{fill:url(#SVGID_8_);}
	.st10{fill:url(#SVGID_9_);}
	.st11{fill:url(#SVGID_10_);}
	.st12{fill:url(#SVGID_11_);}
	.st13{fill:url(#SVGID_12_);}
	.st14{fill:url(#SVGID_13_);}
	.st15{fill:url(#SVGID_14_);}
	.st16{fill:url(#SVGID_15_);}
	.st17{fill:url(#SVGID_16_);}
	.st18{fill:url(#SVGID_17_);}
	.st19{fill:url(#SVGID_18_);}
	.st20{fill:url(#SVGID_19_);}
	.st21{fill:url(#SVGID_20_);}
	.st22{fill:url(#SVGID_21_);}
	.st23{fill:url(#SVGID_22_);}
	.st24{fill:url(#SVGID_23_);}
	.st25{fill:url(#SVGID_24_);}
	.st26{fill:url(#SVGID_25_);}
	.st27{fill:url(#SVGID_26_);}
	.st28{display:inline;fill:url(#SVGID_27_);}
	.st29{display:inline;fill:url(#SVGID_28_);}
	.st30{fill:url(#SVGID_29_);}
	.st31{fill:url(#SVGID_30_);}
	.st32{fill:url(#SVGID_31_);}
	.st33{fill:url(#SVGID_32_);}
	.st34{fill:url(#SVGID_33_);}
	.st35{fill:url(#SVGID_34_);}
	.st36{fill:url(#SVGID_35_);}
	.st37{fill:url(#SVGID_36_);}
	.st38{fill:url(#SVGID_37_);}
	.st39{fill:url(#SVGID_38_);}
	.st40{fill:url(#SVGID_39_);}
	.st41{fill:url(#SVGID_40_);}
	.st42{fill:url(#SVGID_41_);}
	.st43{fill:url(#SVGID_42_);}
	.st44{fill:url(#SVGID_43_);}
	.st45{fill:url(#SVGID_44_);}
	.st46{fill:url(#SVGID_45_);}
	.st47{fill:url(#SVGID_46_);}
	.st48{fill:url(#SVGID_47_);}
	.st49{fill:url(#SVGID_48_);}
	.st50{fill:url(#SVGID_49_);}
	.st51{fill:url(#SVGID_50_);}
	.st52{fill:url(#SVGID_51_);}
	.st53{display:inline;fill:url(#SVGID_52_);}
	.st54{fill:url(#SVGID_53_);}
	.st55{fill:url(#SVGID_54_);}
	.st56{fill:url(#SVGID_55_);}
	.st57{fill:url(#SVGID_56_);}
	.st58{fill:url(#SVGID_57_);}
	.st59{fill:url(#SVGID_58_);}
	.st60{fill:url(#SVGID_59_);}
	.st61{fill:url(#SVGID_60_);}
	.st62{fill:url(#SVGID_61_);}
	.st63{fill:url(#SVGID_62_);}
	.st64{fill:url(#SVGID_63_);}
	.st65{fill:url(#SVGID_64_);}
	.st66{fill:url(#SVGID_65_);}
	.st67{fill:url(#SVGID_66_);}
	.st68{fill:url(#SVGID_67_);}
	.st69{fill:url(#SVGID_68_);}
	.st70{fill:url(#SVGID_69_);}
	.st71{fill:url(#SVGID_70_);}
	.st72{fill:url(#SVGID_71_);}
	.st73{fill:url(#SVGID_72_);}
	.st74{fill:url(#SVGID_73_);}
	.st75{fill:url(#SVGID_74_);}
	.st76{fill:url(#SVGID_75_);}
	.st77{fill:url(#SVGID_76_);}
	.st78{fill:url(#SVGID_77_);}
	.st79{fill:url(#SVGID_78_);}
	.st80{fill:url(#SVGID_79_);}
	.st81{fill:url(#SVGID_80_);}
	.st82{fill:url(#SVGID_81_);}
	.st83{fill:url(#SVGID_82_);}
	.st84{fill:url(#SVGID_83_);}
	.st85{fill:url(#SVGID_84_);}
	.st86{fill:url(#SVGID_85_);}
	.st87{fill:url(#SVGID_86_);}
	.st88{fill:url(#SVGID_87_);}
	.st89{fill:url(#SVGID_88_);}
	.st90{fill:url(#SVGID_89_);}
	.st91{fill:url(#SVGID_90_);}
	.st92{fill:url(#SVGID_91_);}
	.st93{fill:url(#SVGID_92_);}
	.st94{fill:url(#SVGID_93_);}
	.st95{fill:url(#SVGID_94_);}
	.st96{fill:url(#SVGID_95_);}
	.st97{fill:url(#SVGID_96_);}
	.st98{fill:url(#SVGID_97_);}
	.st99{fill:url(#SVGID_98_);}
	.st100{fill:url(#SVGID_99_);}
	.st101{fill:url(#SVGID_100_);}
	.st102{fill:url(#SVGID_101_);}
	.st103{fill:url(#SVGID_102_);}
</style>
<g id="Calque_1_1_" class="st0">
	<g class="st1">
		
			<linearGradient id="SVGID_1_" gradientUnits="userSpaceOnUse" x1="89.1683" y1="199.2632" x2="759.1785" y2="-84.7412" gradientTransform="matrix(1 0 0 -1 0 302)">
			<stop  offset="0" style="stop-color:#005EC7"/>
			<stop  offset="0.9991" style="stop-color:#6D66FF"/>
		</linearGradient>
		<path class="st2" d="M186.9,155.8l1.3-3.7c0.6,0.3,1.4,0.7,2.4,0.9c0.9,0.3,1.8,0.4,2.5,0.4c1,0,1.8-0.2,2.3-0.5s0.8-0.8,0.8-1.4
			c0-0.4-0.2-0.7-0.6-1c-0.4-0.3-1.1-0.8-2-1.3c-0.2-0.1-0.5-0.3-0.9-0.5c-1.4-0.8-2.4-1.5-3.2-2s-1.5-1.2-2-2
			c-0.6-0.8-0.9-1.7-0.9-2.8s0.3-2,0.9-2.9c0.6-0.8,1.4-1.5,2.5-2s2.4-0.7,3.9-0.7c1,0,2,0.1,3.1,0.4c1.1,0.3,2,0.7,2.8,1.2
			l-1.4,3.4c-1-0.4-1.8-0.7-2.4-0.8c-0.6-0.2-1.3-0.2-2-0.2s-1.3,0.2-1.8,0.5s-0.7,0.7-0.7,1.3c0,0.4,0.2,0.8,0.6,1.2
			c0.4,0.3,1,0.7,1.9,1.2c0.3,0.1,0.6,0.3,1,0.5c1.4,0.8,2.5,1.5,3.3,2.1s1.4,1.2,2,2s0.9,1.7,0.9,2.8s-0.3,2.1-0.9,3
			s-1.5,1.6-2.7,2.1s-2.6,0.8-4.2,0.8c-0.9,0-2.1-0.2-3.3-0.5S187.6,156.2,186.9,155.8z"/>
		
			<linearGradient id="SVGID_2_" gradientUnits="userSpaceOnUse" x1="91.513" y1="204.7945" x2="761.5129" y2="-79.2055" gradientTransform="matrix(1 0 0 -1 0 302)">
			<stop  offset="0" style="stop-color:#005EC7"/>
			<stop  offset="0.9991" style="stop-color:#6D66FF"/>
		</linearGradient>
		<path class="st3" d="M211.1,136.7v20.4h-4.7v-20.4H211.1z"/>
		
			<linearGradient id="SVGID_3_" gradientUnits="userSpaceOnUse" x1="94.3306" y1="211.4419" x2="764.3306" y2="-72.5581" gradientTransform="matrix(1 0 0 -1 0 302)">
			<stop  offset="0" style="stop-color:#005EC7"/>
			<stop  offset="0.9991" style="stop-color:#6D66FF"/>
		</linearGradient>
		<path class="st4" d="M232,146.3l-3.3,4.5l-1.9,0.3l-4.1-5.1v11.1H218v-20.4h3.1l6.5,8.6l5.9-8.6h3v20.4H232V146.3z"/>
		
			<linearGradient id="SVGID_4_" gradientUnits="userSpaceOnUse" x1="98.5678" y1="221.4382" x2="768.5678" y2="-62.5618" gradientTransform="matrix(1 0 0 -1 0 302)">
			<stop  offset="0" style="stop-color:#005EC7"/>
			<stop  offset="0.9991" style="stop-color:#6D66FF"/>
		</linearGradient>
		<path class="st5" d="M243.5,136.7h4.7v12.5c0,1.4,0.4,2.5,1.1,3.3c0.7,0.7,1.7,1.1,3,1.1c1.2,0,2.2-0.4,3-1.1
			c0.7-0.8,1.1-1.8,1.1-3.3v-12.5h4.7v12.8c0,1.6-0.4,3-1.1,4.2s-1.8,2.1-3.1,2.8c-1.3,0.7-2.9,1-4.6,1c-1.7,0-3.3-0.3-4.6-1
			s-2.4-1.6-3.1-2.8c-0.7-1.2-1.1-2.6-1.1-4.2L243.5,136.7z"/>
		
			<linearGradient id="SVGID_5_" gradientUnits="userSpaceOnUse" x1="100.8494" y1="226.8208" x2="770.8495" y2="-57.1792" gradientTransform="matrix(1 0 0 -1 0 302)">
			<stop  offset="0" style="stop-color:#005EC7"/>
			<stop  offset="0.9991" style="stop-color:#6D66FF"/>
		</linearGradient>
		<path class="st6" d="M272.4,153.4h8.9l0.5,3.7h-14.1v-20.4h4.7V153.4z"/>
		
			<linearGradient id="SVGID_6_" gradientUnits="userSpaceOnUse" x1="103.9793" y1="234.2049" x2="773.9794" y2="-49.7951" gradientTransform="matrix(1 0 0 -1 0 302)">
			<stop  offset="0" style="stop-color:#005EC7"/>
			<stop  offset="0.9991" style="stop-color:#6D66FF"/>
		</linearGradient>
		<path class="st7" d="M284.5,157.1l7.8-20.4h4.4l7.7,20.2l-4.6,0.5l-1.6-4.7h-7.4l-1.6,4.4H284.5z M292.1,149h4.7l-2.4-6.3
			L292.1,149z"/>
		
			<linearGradient id="SVGID_7_" gradientUnits="userSpaceOnUse" x1="108.2669" y1="244.3197" x2="778.2668" y2="-39.6803" gradientTransform="matrix(1 0 0 -1 0 302)">
			<stop  offset="0" style="stop-color:#005EC7"/>
			<stop  offset="0.9991" style="stop-color:#6D66FF"/>
		</linearGradient>
		<path class="st8" d="M307.2,136.7h17l0.6,3.7H318v16.7h-4.7v-16.7h-6.1L307.2,136.7L307.2,136.7z"/>
		
			<linearGradient id="SVGID_8_" gradientUnits="userSpaceOnUse" x1="110.917" y1="250.5719" x2="780.9354" y2="-33.4359" gradientTransform="matrix(1 0 0 -1 0 302)">
			<stop  offset="0" style="stop-color:#005EC7"/>
			<stop  offset="0.9991" style="stop-color:#6D66FF"/>
		</linearGradient>
		<path class="st9" d="M343.7,153.4l0.6,3.7h-14.6v-20.4h12.9l0.6,3.7h-8.8v4.6h6.5l0.6,3.7h-7v4.8h9.2V153.4z"/>
		
			<linearGradient id="SVGID_9_" gradientUnits="userSpaceOnUse" x1="114.6516" y1="259.3824" x2="784.6516" y2="-24.6176" gradientTransform="matrix(1 0 0 -1 0 302)">
			<stop  offset="0" style="stop-color:#005EC7"/>
			<stop  offset="0.9991" style="stop-color:#6D66FF"/>
		</linearGradient>
		<path class="st10" d="M349.1,136.7h4.7v12.5c0,1.4,0.4,2.5,1.1,3.3c0.7,0.7,1.7,1.1,3,1.1c1.2,0,2.2-0.4,3-1.1s1.1-1.8,1.1-3.3
			v-12.5h4.7v12.8c0,1.6-0.4,3-1.1,4.2s-1.8,2.1-3.1,2.8c-1.3,0.7-2.9,1-4.6,1s-3.3-0.3-4.6-1c-1.3-0.7-2.4-1.6-3.1-2.8
			s-1.1-2.6-1.1-4.2V136.7z"/>
		
			<linearGradient id="SVGID_10_" gradientUnits="userSpaceOnUse" x1="117.328" y1="265.6964" x2="787.3281" y2="-18.3036" gradientTransform="matrix(1 0 0 -1 0 302)">
			<stop  offset="0" style="stop-color:#005EC7"/>
			<stop  offset="0.9991" style="stop-color:#6D66FF"/>
		</linearGradient>
		<path class="st11" d="M373.4,157.1v-20.4h7.5c2.4,0,4.4,0.6,5.9,1.7c1.5,1.1,2.3,2.8,2.3,5c0,1.2-0.3,2.3-0.8,3.2
			c-0.6,0.9-1.3,1.6-2.3,2.2l4.8,8.4h-5.2l-3.8-7.1h-3.7v7.1L373.4,157.1L373.4,157.1z M380.8,140.5h-2.7v5.8h2.8
			c1,0,1.8-0.3,2.5-0.8c0.6-0.5,0.9-1.2,0.9-2.1c0-1-0.3-1.7-0.9-2.2C382.7,140.7,381.9,140.5,380.8,140.5z"/>
		
			<linearGradient id="SVGID_11_" gradientUnits="userSpaceOnUse" x1="122.1412" y1="277.0514" x2="792.1411" y2="-6.9486" gradientTransform="matrix(1 0 0 -1 0 302)">
			<stop  offset="0" style="stop-color:#005EC7"/>
			<stop  offset="0.9991" style="stop-color:#6D66FF"/>
		</linearGradient>
		<path class="st12" d="M412.9,157.1h-8.5v-20.4h8.5c2,0,3.8,0.4,5.2,1.3c1.4,0.9,2.5,2,3.2,3.6s1.1,3.3,1.1,5.2
			c0,2.1-0.4,3.9-1.2,5.5c-0.8,1.5-1.9,2.7-3.3,3.6C416.5,156.7,414.8,157.1,412.9,157.1z M412.9,140.5h-3.8v12.8h3.6
			c1.5,0,2.7-0.5,3.6-1.6s1.3-2.7,1.3-4.9c0-1.9-0.4-3.5-1.2-4.6S414.4,140.5,412.9,140.5z"/>
		
			<linearGradient id="SVGID_12_" gradientUnits="userSpaceOnUse" x1="125.889" y1="285.893" x2="795.9073" y2="1.8853" gradientTransform="matrix(1 0 0 -1 0 302)">
			<stop  offset="0" style="stop-color:#005EC7"/>
			<stop  offset="0.9991" style="stop-color:#6D66FF"/>
		</linearGradient>
		<path class="st13" d="M442,153.4l0.6,3.7H428v-20.4h12.9l0.6,3.7h-8.8v4.6h6.5l0.6,3.7h-7.1v4.8h9.3V153.4z"/>
		
			<linearGradient id="SVGID_13_" gradientUnits="userSpaceOnUse" x1="130.1765" y1="296.0079" x2="800.1765" y2="12.0079" gradientTransform="matrix(1 0 0 -1 0 302)">
			<stop  offset="0" style="stop-color:#005EC7"/>
			<stop  offset="0.9991" style="stop-color:#6D66FF"/>
		</linearGradient>
		<path class="st14" d="M461.2,145.2h6.3l0.5,3.7h-6.9v8.2h-4.7v-20.4h12.4l0.5,3.7H461v4.8H461.2z"/>
		
			<linearGradient id="SVGID_14_" gradientUnits="userSpaceOnUse" x1="132.7596" y1="302.102" x2="802.7596" y2="18.102" gradientTransform="matrix(1 0 0 -1 0 302)">
			<stop  offset="0" style="stop-color:#005EC7"/>
			<stop  offset="0.9991" style="stop-color:#6D66FF"/>
		</linearGradient>
		<path class="st15" d="M474.6,157.1v-20.4h7.5c2.4,0,4.4,0.6,5.9,1.7c1.5,1.1,2.3,2.8,2.3,5c0,1.2-0.3,2.3-0.8,3.2
			c-0.6,0.9-1.3,1.6-2.3,2.2l4.8,8.4h-5.2L483,150h-3.7v7.1H474.6z M482,140.5h-2.7v5.8h2.8c1,0,1.8-0.3,2.5-0.8
			c0.6-0.5,0.9-1.2,0.9-2.1c0-1-0.3-1.7-0.9-2.2C484,140.7,483.1,140.5,482,140.5z"/>
		
			<linearGradient id="SVGID_15_" gradientUnits="userSpaceOnUse" x1="135.9947" y1="309.7339" x2="805.9947" y2="25.7339" gradientTransform="matrix(1 0 0 -1 0 302)">
			<stop  offset="0" style="stop-color:#005EC7"/>
			<stop  offset="0.9991" style="stop-color:#6D66FF"/>
		</linearGradient>
		<path class="st16" d="M494.7,157.1l7.8-20.4h4.4l7.7,20.2l-4.6,0.5l-1.6-4.7H501l-1.6,4.4H494.7z M502.3,149h4.7l-2.4-6.3
			L502.3,149z"/>
		
			<linearGradient id="SVGID_16_" gradientUnits="userSpaceOnUse" x1="139.2008" y1="317.2976" x2="809.2007" y2="33.2976" gradientTransform="matrix(1 0 0 -1 0 302)">
			<stop  offset="0" style="stop-color:#005EC7"/>
			<stop  offset="0.9991" style="stop-color:#6D66FF"/>
		</linearGradient>
		<path class="st17" d="M524.2,136.7v20.4h-4.7v-20.4H524.2z"/>
		
			<linearGradient id="SVGID_17_" gradientUnits="userSpaceOnUse" x1="141.4253" y1="322.5458" x2="811.4343" y2="38.542" gradientTransform="matrix(1 0 0 -1 0 302)">
			<stop  offset="0" style="stop-color:#005EC7"/>
			<stop  offset="0.9991" style="stop-color:#6D66FF"/>
		</linearGradient>
		<path class="st18" d="M530,155.8l1.3-3.7c0.6,0.3,1.4,0.7,2.4,0.9s1.8,0.4,2.5,0.4c1,0,1.8-0.2,2.3-0.5s0.8-0.8,0.8-1.4
			c0-0.4-0.2-0.7-0.6-1c-0.4-0.3-1.1-0.8-2-1.3c-0.2-0.1-0.5-0.3-0.9-0.5c-1.4-0.8-2.4-1.5-3.2-2s-1.5-1.2-2-2s-0.9-1.7-0.9-2.8
			s0.3-2,0.9-2.9c0.6-0.8,1.4-1.5,2.5-2s2.4-0.7,3.9-0.7c1,0,2,0.1,3.1,0.4c1.1,0.3,2,0.7,2.8,1.2l-1.4,3.4c-1-0.4-1.8-0.7-2.4-0.8
			c-0.6-0.2-1.3-0.2-2-0.2s-1.3,0.2-1.8,0.5s-0.7,0.7-0.7,1.3c0,0.4,0.2,0.8,0.6,1.2c0.4,0.3,1,0.7,1.9,1.2c0.3,0.1,0.6,0.3,1,0.5
			c1.4,0.8,2.5,1.5,3.3,2.1c0.8,0.5,1.4,1.2,2,2s0.9,1.7,0.9,2.8s-0.3,2.1-0.9,3s-1.5,1.6-2.7,2.1s-2.6,0.8-4.2,0.8
			c-0.9,0-2.1-0.2-3.3-0.5S530.7,156.2,530,155.8z"/>
		
			<linearGradient id="SVGID_18_" gradientUnits="userSpaceOnUse" x1="145.5663" y1="332.3148" x2="815.5663" y2="48.3148" gradientTransform="matrix(1 0 0 -1 0 302)">
			<stop  offset="0" style="stop-color:#005EC7"/>
			<stop  offset="0.9991" style="stop-color:#6D66FF"/>
		</linearGradient>
		<path class="st19" d="M566.7,157.1h-8.5v-20.4h8.5c2,0,3.8,0.4,5.2,1.3c1.4,0.9,2.5,2,3.2,3.6s1.1,3.3,1.1,5.2
			c0,2.1-0.4,3.9-1.2,5.5c-0.8,1.5-1.9,2.7-3.3,3.6C570.3,156.7,568.6,157.1,566.7,157.1z M566.7,140.5h-3.8v12.8h3.6
			c1.5,0,2.7-0.5,3.6-1.6s1.3-2.7,1.3-4.9c0-1.9-0.4-3.5-1.2-4.6S568.2,140.5,566.7,140.5z"/>
		
			<linearGradient id="SVGID_19_" gradientUnits="userSpaceOnUse" x1="149.3293" y1="341.1924" x2="819.3468" y2="57.185" gradientTransform="matrix(1 0 0 -1 0 302)">
			<stop  offset="0" style="stop-color:#005EC7"/>
			<stop  offset="0.9991" style="stop-color:#6D66FF"/>
		</linearGradient>
		<path class="st20" d="M595.9,153.4l0.6,3.7h-14.6v-20.4h12.9l0.6,3.7h-8.8v4.6h6.5l0.6,3.7h-7.1v4.8h9.3V153.4z"/>
		
			<linearGradient id="SVGID_20_" gradientUnits="userSpaceOnUse" x1="154.028" y1="352.2774" x2="824.028" y2="68.2774" gradientTransform="matrix(1 0 0 -1 0 302)">
			<stop  offset="0" style="stop-color:#005EC7"/>
			<stop  offset="0.9991" style="stop-color:#6D66FF"/>
		</linearGradient>
		<path class="st21" d="M615,144.9v12.2h-4.7v-20.4h4.5l8.6,12.3v-12.3h4.7v20.4h-4.5L615,144.9z"/>
		
			<linearGradient id="SVGID_21_" gradientUnits="userSpaceOnUse" x1="157.834" y1="361.2562" x2="827.834" y2="77.2562" gradientTransform="matrix(1 0 0 -1 0 302)">
			<stop  offset="0" style="stop-color:#005EC7"/>
			<stop  offset="0.9991" style="stop-color:#6D66FF"/>
		</linearGradient>
		<path class="st22" d="M644,136.2c2.1,0,4,0.5,5.5,1.4s2.7,2.2,3.6,3.8c0.8,1.6,1.2,3.4,1.2,5.3c0,2.1-0.4,3.9-1.3,5.6
			c-0.9,1.6-2.1,2.9-3.6,3.8c-1.6,0.9-3.3,1.4-5.3,1.4c-2.1,0-3.9-0.5-5.5-1.4s-2.7-2.2-3.6-3.8c-0.8-1.6-1.2-3.4-1.2-5.3
			c0-2.1,0.4-3.9,1.3-5.5s2.1-2.9,3.6-3.8C640.2,136.7,642,136.3,644,136.2z M638.6,147c0,2,0.5,3.6,1.5,4.8s2.3,1.8,3.9,1.8
			c1,0,1.9-0.3,2.8-0.8c0.8-0.5,1.5-1.3,2-2.3s0.7-2.3,0.7-3.8c0-1.3-0.2-2.4-0.7-3.4c-0.4-1-1.1-1.8-1.9-2.4
			c-0.8-0.6-1.8-0.9-2.8-0.9s-1.9,0.3-2.7,0.8c-0.8,0.6-1.5,1.4-2,2.4C638.8,144.4,638.6,145.6,638.6,147z"/>
		
			<linearGradient id="SVGID_22_" gradientUnits="userSpaceOnUse" x1="161.6511" y1="370.2614" x2="831.6511" y2="86.2613" gradientTransform="matrix(1 0 0 -1 0 302)">
			<stop  offset="0" style="stop-color:#005EC7"/>
			<stop  offset="0.9991" style="stop-color:#6D66FF"/>
		</linearGradient>
		<path class="st23" d="M657.7,136.7h17l0.6,3.7h-6.8v16.7h-4.7v-16.7h-6.1V136.7z"/>
		
			<linearGradient id="SVGID_23_" gradientUnits="userSpaceOnUse" x1="163.8977" y1="375.5614" x2="833.8977" y2="91.5613" gradientTransform="matrix(1 0 0 -1 0 302)">
			<stop  offset="0" style="stop-color:#005EC7"/>
			<stop  offset="0.9991" style="stop-color:#6D66FF"/>
		</linearGradient>
		<path class="st24" d="M677.9,157.1l7.8-20.4h4.4l7.7,20.2l-4.6,0.5l-1.6-4.7h-7.4l-1.6,4.4H677.9z M685.5,149h4.7l-2.4-6.3
			L685.5,149z"/>
		
			<linearGradient id="SVGID_24_" gradientUnits="userSpaceOnUse" x1="167.1037" y1="383.125" x2="837.1038" y2="99.125" gradientTransform="matrix(1 0 0 -1 0 302)">
			<stop  offset="0" style="stop-color:#005EC7"/>
			<stop  offset="0.9991" style="stop-color:#6D66FF"/>
		</linearGradient>
		<path class="st25" d="M707.4,136.7v20.4h-4.7v-20.4H707.4z"/>
		
			<linearGradient id="SVGID_25_" gradientUnits="userSpaceOnUse" x1="169.2653" y1="388.2245" x2="839.2653" y2="104.2245" gradientTransform="matrix(1 0 0 -1 0 302)">
			<stop  offset="0" style="stop-color:#005EC7"/>
			<stop  offset="0.9991" style="stop-color:#6D66FF"/>
		</linearGradient>
		<path class="st26" d="M714.4,157.1v-20.4h7.5c2.4,0,4.4,0.6,5.9,1.7c1.5,1.1,2.3,2.8,2.3,5c0,1.2-0.3,2.3-0.8,3.2
			c-0.6,0.9-1.3,1.6-2.3,2.2l4.8,8.4h-5.2l-3.8-7.1h-3.7v7.1L714.4,157.1L714.4,157.1z M721.8,140.5h-2.7v5.8h2.8
			c1,0,1.8-0.3,2.5-0.8c0.6-0.5,0.9-1.2,0.9-2.1c0-1-0.3-1.7-0.9-2.2C723.8,140.7,722.9,140.5,721.8,140.5z"/>
		
			<linearGradient id="SVGID_26_" gradientUnits="userSpaceOnUse" x1="172.922" y1="396.851" x2="842.9394" y2="112.8436" gradientTransform="matrix(1 0 0 -1 0 302)">
			<stop  offset="0" style="stop-color:#005EC7"/>
			<stop  offset="0.9991" style="stop-color:#6D66FF"/>
		</linearGradient>
		<path class="st27" d="M750.8,153.4l0.6,3.7h-14.6v-20.4h12.9l0.6,3.7h-8.8v4.6h6.5l0.6,3.7h-7.1v4.8h9.3V153.4z"/>
	</g>
	
		<linearGradient id="SVGID_27_" gradientUnits="userSpaceOnUse" x1="79.7268" y1="176.9892" x2="749.7268" y2="-107.0108" gradientTransform="matrix(1 0 0 -1 0 302)">
		<stop  offset="0" style="stop-color:#005EC7"/>
		<stop  offset="0.9991" style="stop-color:#6D66FF"/>
	</linearGradient>
	<path class="st28" d="M190.1,191c-12.1,15.1-30.6,24.8-51.5,24.8c-36.3,0-65.8-29.5-65.8-65.8s29.5-65.8,65.8-65.8
		c20.8,0,39.4,9.7,51.5,24.8h5.3c-12.7-17.6-33.4-29-56.7-29c-38.7,0-70,31.3-70,70s31.3,70,70,70c23.3,0,44-11.4,56.7-29H190.1z"/>
	
		<linearGradient id="SVGID_28_" gradientUnits="userSpaceOnUse" x1="79.526" y1="176.5154" x2="749.526" y2="-107.4846" gradientTransform="matrix(1 0 0 -1 0 302)">
		<stop  offset="0" style="stop-color:#005EC7"/>
		<stop  offset="0.9991" style="stop-color:#6D66FF"/>
	</linearGradient>
	<path class="st29" d="M166.3,144.4l-8.5-7.9v-12.9H148v3.8l-9.8-9.1l-28.1,26.1c-0.4,0.4-0.4,1,0,1.4s1,0.4,1.4,0l3.3-3v32.7h47
		v-32.7l3.3,3c0.2,0.2,0.4,0.3,0.7,0.3s0.5-0.1,0.7-0.3C166.7,145.4,166.7,144.7,166.3,144.4L166.3,144.4z M150,125.5h5.9v9.2
		l-5.9-5.5V125.5z M132.3,173.5v-20.6c0-0.5,0.4-0.9,0.9-0.9h9.9c0.5,0,0.9,0.4,0.9,0.9v20.6H132.3z M159.8,173.5h-13.7v-20.6
		c0-1.6-1.3-2.9-2.9-2.9h-9.9c-1.6,0-2.9,1.3-2.9,2.9v20.6h-13.7V141l21.5-20l14,13l5.6,5.2l2,1.8L159.8,173.5L159.8,173.5z"/>
</g>
<g id="Calque_3" class="st0">
	<g class="st1">
		
			<linearGradient id="SVGID_29_" gradientUnits="userSpaceOnUse" x1="56.5082" y1="204.6258" x2="750.5082" y2="-55.3742" gradientTransform="matrix(1 0 0 -1 0 302)">
			<stop  offset="0" style="stop-color:#00B9C7"/>
			<stop  offset="0.9991" style="stop-color:#6D24FF"/>
		</linearGradient>
		<path class="st30" d="M182.3,155.8l1.3-3.7c0.6,0.3,1.4,0.7,2.4,0.9c0.9,0.3,1.8,0.4,2.5,0.4c1,0,1.8-0.2,2.3-0.5s0.8-0.8,0.8-1.4
			c0-0.4-0.2-0.7-0.6-1c-0.4-0.3-1.1-0.8-2-1.3c-0.2-0.1-0.5-0.3-0.9-0.5c-1.4-0.8-2.4-1.5-3.2-2s-1.5-1.2-2-2
			c-0.6-0.8-0.9-1.7-0.9-2.8s0.3-2,0.9-2.9c0.6-0.8,1.4-1.5,2.5-2s2.4-0.7,3.9-0.7c1,0,2,0.1,3.1,0.4c1.1,0.3,2,0.7,2.8,1.2
			l-1.4,3.4c-1-0.4-1.8-0.7-2.4-0.8c-0.6-0.2-1.3-0.2-2-0.2s-1.3,0.2-1.8,0.5s-0.7,0.7-0.7,1.3c0,0.4,0.2,0.8,0.6,1.2
			c0.4,0.3,1,0.7,1.9,1.2c0.3,0.1,0.6,0.3,1,0.5c1.4,0.8,2.5,1.5,3.3,2.1s1.4,1.2,2,2s0.9,1.7,0.9,2.8s-0.3,2.1-0.9,3
			s-1.5,1.6-2.7,2.1s-2.6,0.8-4.2,0.8c-0.9,0-2.1-0.2-3.3-0.5S183,156.2,182.3,155.8z"/>
		
			<linearGradient id="SVGID_30_" gradientUnits="userSpaceOnUse" x1="58.397" y1="209.6674" x2="752.397" y2="-50.3326" gradientTransform="matrix(1 0 0 -1 0 302)">
			<stop  offset="0" style="stop-color:#00B9C7"/>
			<stop  offset="0.9991" style="stop-color:#6D24FF"/>
		</linearGradient>
		<path class="st31" d="M206.4,136.7v20.4h-4.7v-20.4H206.4z"/>
		
			<linearGradient id="SVGID_31_" gradientUnits="userSpaceOnUse" x1="60.6863" y1="215.778" x2="754.6862" y2="-44.222" gradientTransform="matrix(1 0 0 -1 0 302)">
			<stop  offset="0" style="stop-color:#00B9C7"/>
			<stop  offset="0.9991" style="stop-color:#6D24FF"/>
		</linearGradient>
		<path class="st32" d="M227.4,146.3l-3.3,4.5l-1.9,0.3l-4.1-5.1v11.1h-4.7v-20.4h3.1l6.5,8.6l5.9-8.6h3v20.4h-4.7v-10.8H227.4z"/>
		
			<linearGradient id="SVGID_32_" gradientUnits="userSpaceOnUse" x1="64.103" y1="224.8979" x2="758.103" y2="-35.1019" gradientTransform="matrix(1 0 0 -1 0 302)">
			<stop  offset="0" style="stop-color:#00B9C7"/>
			<stop  offset="0.9991" style="stop-color:#6D24FF"/>
		</linearGradient>
		<path class="st33" d="M238.8,136.7h4.7v12.5c0,1.4,0.4,2.5,1.1,3.3c0.7,0.7,1.7,1.1,3,1.1c1.2,0,2.2-0.4,3-1.1
			c0.7-0.8,1.1-1.8,1.1-3.3v-12.5h4.7v12.8c0,1.6-0.4,3-1.1,4.2c-0.7,1.2-1.8,2.1-3.1,2.8s-2.9,1-4.6,1c-1.7,0-3.3-0.3-4.6-1
			s-2.4-1.6-3.1-2.8c-0.7-1.2-1.1-2.6-1.1-4.2L238.8,136.7z"/>
		
			<linearGradient id="SVGID_33_" gradientUnits="userSpaceOnUse" x1="65.9542" y1="229.8391" x2="759.9542" y2="-30.1609" gradientTransform="matrix(1 0 0 -1 0 302)">
			<stop  offset="0" style="stop-color:#00B9C7"/>
			<stop  offset="0.9991" style="stop-color:#6D24FF"/>
		</linearGradient>
		<path class="st34" d="M267.8,153.4h8.9l0.5,3.7h-14.1v-20.4h4.7V153.4z"/>
		
			<linearGradient id="SVGID_34_" gradientUnits="userSpaceOnUse" x1="68.4834" y1="236.5903" x2="762.4834" y2="-23.4097" gradientTransform="matrix(1 0 0 -1 0 302)">
			<stop  offset="0" style="stop-color:#00B9C7"/>
			<stop  offset="0.9991" style="stop-color:#6D24FF"/>
		</linearGradient>
		<path class="st35" d="M279.9,157.1l7.8-20.4h4.4l7.7,20.2l-4.6,0.5l-1.6-4.7h-7.4l-1.6,4.4H279.9z M287.5,149h4.7l-2.4-6.3
			L287.5,149z"/>
		
			<linearGradient id="SVGID_35_" gradientUnits="userSpaceOnUse" x1="71.9359" y1="245.8056" x2="765.9358" y2="-14.1944" gradientTransform="matrix(1 0 0 -1 0 302)">
			<stop  offset="0" style="stop-color:#00B9C7"/>
			<stop  offset="0.9991" style="stop-color:#6D24FF"/>
		</linearGradient>
		<path class="st36" d="M302.5,136.7h17l0.6,3.7h-6.8v16.7h-4.7v-16.7h-6.1V136.7z"/>
		
			<linearGradient id="SVGID_36_" gradientUnits="userSpaceOnUse" x1="74.0775" y1="251.522" x2="768.0774" y2="-8.478" gradientTransform="matrix(1 0 0 -1 0 302)">
			<stop  offset="0" style="stop-color:#00B9C7"/>
			<stop  offset="0.9991" style="stop-color:#6D24FF"/>
		</linearGradient>
		<path class="st37" d="M339,153.4l0.6,3.7H325v-20.4h12.9l0.6,3.7h-8.8v4.6h6.5l0.6,3.7h-7.1v4.8h9.3V153.4z"/>
		
			<linearGradient id="SVGID_37_" gradientUnits="userSpaceOnUse" x1="77.1125" y1="259.6235" x2="771.1125" y2="-0.3765" gradientTransform="matrix(1 0 0 -1 0 302)">
			<stop  offset="0" style="stop-color:#00B9C7"/>
			<stop  offset="0.9991" style="stop-color:#6D24FF"/>
		</linearGradient>
		<path class="st38" d="M344.5,136.7h4.7v12.5c0,1.4,0.4,2.5,1.1,3.3c0.7,0.7,1.7,1.1,3,1.1c1.2,0,2.2-0.4,3-1.1s1.1-1.8,1.1-3.3
			v-12.5h4.7v12.8c0,1.6-0.4,3-1.1,4.2s-1.8,2.1-3.1,2.8c-1.3,0.7-2.9,1-4.6,1s-3.3-0.3-4.6-1c-1.3-0.7-2.4-1.6-3.1-2.8
			s-1.1-2.6-1.1-4.2V136.7z"/>
		
			<linearGradient id="SVGID_38_" gradientUnits="userSpaceOnUse" x1="79.2547" y1="265.3414" x2="773.2546" y2="5.3414" gradientTransform="matrix(1 0 0 -1 0 302)">
			<stop  offset="0" style="stop-color:#00B9C7"/>
			<stop  offset="0.9991" style="stop-color:#6D24FF"/>
		</linearGradient>
		<path class="st39" d="M368.8,157.1v-20.4h7.5c2.4,0,4.4,0.6,5.9,1.7c1.5,1.1,2.3,2.8,2.3,5c0,1.2-0.3,2.3-0.8,3.2
			c-0.6,0.9-1.3,1.6-2.3,2.2l4.8,8.4H381l-3.8-7.1h-3.7v7.1L368.8,157.1L368.8,157.1z M376.1,140.5h-2.7v5.8h2.8
			c1,0,1.8-0.3,2.5-0.8c0.6-0.5,0.9-1.2,0.9-2.1c0-1-0.3-1.7-0.9-2.2C378.1,140.7,377.3,140.5,376.1,140.5z"/>
		
			<linearGradient id="SVGID_39_" gradientUnits="userSpaceOnUse" x1="83.1347" y1="275.6978" x2="777.1346" y2="15.6979" gradientTransform="matrix(1 0 0 -1 0 302)">
			<stop  offset="0" style="stop-color:#00B9C7"/>
			<stop  offset="0.9991" style="stop-color:#6D24FF"/>
		</linearGradient>
		<path class="st40" d="M408.2,157.1h-8.5v-20.4h8.5c2,0,3.8,0.4,5.2,1.3c1.4,0.9,2.5,2,3.2,3.6s1.1,3.3,1.1,5.2
			c0,2.1-0.4,3.9-1.2,5.5c-0.8,1.5-1.9,2.7-3.3,3.6C411.9,156.7,410.2,157.1,408.2,157.1z M408.2,140.5h-3.8v12.8h3.6
			c1.5,0,2.7-0.5,3.6-1.6s1.3-2.7,1.3-4.9c0-1.9-0.4-3.5-1.2-4.6S409.8,140.5,408.2,140.5z"/>
		
			<linearGradient id="SVGID_40_" gradientUnits="userSpaceOnUse" x1="86.1885" y1="283.8493" x2="780.1884" y2="23.8493" gradientTransform="matrix(1 0 0 -1 0 302)">
			<stop  offset="0" style="stop-color:#00B9C7"/>
			<stop  offset="0.9991" style="stop-color:#6D24FF"/>
		</linearGradient>
		<path class="st41" d="M437.4,153.4l0.6,3.7h-14.6v-20.4h12.9l0.6,3.7H428v4.6h6.5l0.6,3.7H428v4.8h9.4V153.4z"/>
		
			<linearGradient id="SVGID_41_" gradientUnits="userSpaceOnUse" x1="89.6531" y1="293.0973" x2="783.6531" y2="33.0974" gradientTransform="matrix(1 0 0 -1 0 302)">
			<stop  offset="0" style="stop-color:#00B9C7"/>
			<stop  offset="0.9991" style="stop-color:#6D24FF"/>
		</linearGradient>
		<path class="st42" d="M456.6,145.2h6.3l0.5,3.7h-6.9v8.2h-4.7v-20.4h12.4l0.5,3.7h-8.3v4.8H456.6z"/>
		
			<linearGradient id="SVGID_42_" gradientUnits="userSpaceOnUse" x1="91.4194" y1="297.8118" x2="785.4194" y2="37.8117" gradientTransform="matrix(1 0 0 -1 0 302)">
			<stop  offset="0" style="stop-color:#00B9C7"/>
			<stop  offset="0.9991" style="stop-color:#6D24FF"/>
		</linearGradient>
		<path class="st43" d="M474.7,136.7v20.4H470v-20.4H474.7z"/>
		
			<linearGradient id="SVGID_43_" gradientUnits="userSpaceOnUse" x1="93.6656" y1="303.8074" x2="787.6656" y2="43.8074" gradientTransform="matrix(1 0 0 -1 0 302)">
			<stop  offset="0" style="stop-color:#00B9C7"/>
			<stop  offset="0.9991" style="stop-color:#6D24FF"/>
		</linearGradient>
		<path class="st44" d="M486.4,144.9v12.2h-4.7v-20.4h4.5l8.6,12.3v-12.3h4.7v20.4H495L486.4,144.9z"/>
		
			<linearGradient id="SVGID_44_" gradientUnits="userSpaceOnUse" x1="96.1148" y1="310.3451" x2="790.1149" y2="50.3451" gradientTransform="matrix(1 0 0 -1 0 302)">
			<stop  offset="0" style="stop-color:#00B9C7"/>
			<stop  offset="0.9991" style="stop-color:#6D24FF"/>
		</linearGradient>
		<path class="st45" d="M504.4,157.1l7.8-20.4h4.4l7.7,20.2l-4.6,0.5l-1.6-4.7h-7.4l-1.6,4.4H504.4z M512,149h4.7l-2.4-6.3L512,149z
			"/>
		
			<linearGradient id="SVGID_45_" gradientUnits="userSpaceOnUse" x1="99.5119" y1="319.4125" x2="793.5119" y2="59.4125" gradientTransform="matrix(1 0 0 -1 0 302)">
			<stop  offset="0" style="stop-color:#00B9C7"/>
			<stop  offset="0.9991" style="stop-color:#6D24FF"/>
		</linearGradient>
		<path class="st46" d="M533.9,144.9v12.2h-4.7v-20.4h4.5l8.6,12.3v-12.3h4.7v20.4h-4.5L533.9,144.9z"/>
		
			<linearGradient id="SVGID_46_" gradientUnits="userSpaceOnUse" x1="102.5472" y1="327.5143" x2="796.5471" y2="67.5142" gradientTransform="matrix(1 0 0 -1 0 302)">
			<stop  offset="0" style="stop-color:#00B9C7"/>
			<stop  offset="0.9991" style="stop-color:#6D24FF"/>
		</linearGradient>
		<path class="st47" d="M568.5,137.8l-1.4,3.2c-1.1-0.3-1.9-0.6-2.4-0.7s-1.2-0.2-1.9-0.2c-0.9,0-1.8,0.3-2.6,0.8
			c-0.8,0.6-1.5,1.4-1.9,2.4c-0.5,1-0.7,2.2-0.7,3.6c0,1.3,0.2,2.4,0.7,3.4s1.1,1.8,1.9,2.4c0.8,0.6,1.7,0.9,2.7,0.9
			c1.4,0,2.8-0.3,4.2-1l1.8,3.5c-0.8,0.4-1.7,0.8-2.8,1s-2.1,0.4-3.1,0.4c-2.1,0-3.9-0.4-5.5-1.3c-1.5-0.9-2.7-2.1-3.5-3.7
			c-0.8-1.6-1.2-3.4-1.2-5.4c0-2.1,0.4-3.9,1.3-5.5c0.9-1.6,2.1-2.9,3.6-3.8s3.3-1.4,5.3-1.4c0.9,0,1.8,0.1,2.9,0.4
			C566.8,137,567.7,137.3,568.5,137.8z"/>
		
			<linearGradient id="SVGID_47_" gradientUnits="userSpaceOnUse" x1="104.6874" y1="333.2272" x2="798.6874" y2="73.2272" gradientTransform="matrix(1 0 0 -1 0 302)">
			<stop  offset="0" style="stop-color:#00B9C7"/>
			<stop  offset="0.9991" style="stop-color:#6D24FF"/>
		</linearGradient>
		<path class="st48" d="M587.7,153.4l0.6,3.7h-14.6v-20.4h12.9l0.6,3.7h-8.8v4.6h6.5l0.6,3.7h-7.1v4.8h9.3V153.4z"/>
		
			<linearGradient id="SVGID_48_" gradientUnits="userSpaceOnUse" x1="107.4445" y1="340.5862" x2="801.4444" y2="80.5862" gradientTransform="matrix(1 0 0 -1 0 302)">
			<stop  offset="0" style="stop-color:#00B9C7"/>
			<stop  offset="0.9991" style="stop-color:#6D24FF"/>
		</linearGradient>
		<path class="st49" d="M607.3,146.3l-3.3,4.5l-1.9,0.3L598,146v11.1h-4.7v-20.4h3.1l6.5,8.6l5.9-8.6h3v20.4h-4.7v-10.8H607.3z"/>
		
			<linearGradient id="SVGID_49_" gradientUnits="userSpaceOnUse" x1="110.2753" y1="348.1424" x2="804.2753" y2="88.1424" gradientTransform="matrix(1 0 0 -1 0 302)">
			<stop  offset="0" style="stop-color:#00B9C7"/>
			<stop  offset="0.9991" style="stop-color:#6D24FF"/>
		</linearGradient>
		<path class="st50" d="M633.1,153.4l0.6,3.7h-14.6v-20.4H632l0.6,3.7h-8.8v4.6h6.5l0.6,3.7h-7.1v4.8h9.3V153.4z"/>
		
			<linearGradient id="SVGID_50_" gradientUnits="userSpaceOnUse" x1="113.0138" y1="355.4522" x2="807.0138" y2="95.4522" gradientTransform="matrix(1 0 0 -1 0 302)">
			<stop  offset="0" style="stop-color:#00B9C7"/>
			<stop  offset="0.9991" style="stop-color:#6D24FF"/>
		</linearGradient>
		<path class="st51" d="M643.6,144.9v12.2h-4.7v-20.4h4.5L652,149v-12.3h4.7v20.4h-4.5L643.6,144.9z"/>
		
			<linearGradient id="SVGID_51_" gradientUnits="userSpaceOnUse" x1="116.1338" y1="363.7804" x2="810.1338" y2="103.7804" gradientTransform="matrix(1 0 0 -1 0 302)">
			<stop  offset="0" style="stop-color:#00B9C7"/>
			<stop  offset="0.9991" style="stop-color:#6D24FF"/>
		</linearGradient>
		<path class="st52" d="M661.6,136.7h17l0.6,3.7h-6.8v16.7h-4.7v-16.7h-6.1V136.7z"/>
	</g>
	
		<linearGradient id="SVGID_52_" gradientUnits="userSpaceOnUse" x1="49.3576" y1="185.5392" x2="743.3576" y2="-74.4608" gradientTransform="matrix(1 0 0 -1 0 302)">
		<stop  offset="0" style="stop-color:#00B9C7"/>
		<stop  offset="0.9991" style="stop-color:#6D24FF"/>
	</linearGradient>
	<path class="st53" d="M190.3,191c-12.1,15.1-30.6,24.8-51.5,24.8c-36.3,0-65.8-29.5-65.8-65.8s29.5-65.8,65.8-65.8
		c20.8,0,39.4,9.7,51.5,24.8h5.3c-12.7-17.6-33.4-29-56.7-29c-38.7,0-70,31.3-70,70s31.3,70,70,70c23.3,0,44-11.4,56.7-29H190.3z"/>
	<g class="st1">
		
			<linearGradient id="SVGID_53_" gradientUnits="userSpaceOnUse" x1="48.1556" y1="182.3305" x2="742.1555" y2="-77.6695" gradientTransform="matrix(1 0 0 -1 0 302)">
			<stop  offset="0" style="stop-color:#00B9C7"/>
			<stop  offset="0.9991" style="stop-color:#6D24FF"/>
		</linearGradient>
		<path class="st54" d="M163.9,136.9h-30.6c-0.6,0-1,0.4-1,1v38.8c0,0.6,0.4,1,1,1h30.6c0.6,0,1-0.4,1-1v-38.8
			C164.9,137.3,164.5,136.9,163.9,136.9L163.9,136.9z M162.8,138.9v6.1h-28.6v-2h12.2v-2h-12.2v-2h28.6V138.9z M134.3,175.7v-28.6
			h28.6v28.6H134.3z"/>
		
			<linearGradient id="SVGID_54_" gradientUnits="userSpaceOnUse" x1="49.5794" y1="186.1311" x2="743.5793" y2="-73.8689" gradientTransform="matrix(1 0 0 -1 0 302)">
			<stop  offset="0" style="stop-color:#00B9C7"/>
			<stop  offset="0.9991" style="stop-color:#6D24FF"/>
		</linearGradient>
		<rect x="139.4" y="149.1" class="st55" width="3.1" height="2"/>
		
			<linearGradient id="SVGID_55_" gradientUnits="userSpaceOnUse" x1="50.2071" y1="187.8066" x2="744.207" y2="-72.1934" gradientTransform="matrix(1 0 0 -1 0 302)">
			<stop  offset="0" style="stop-color:#00B9C7"/>
			<stop  offset="0.9991" style="stop-color:#6D24FF"/>
		</linearGradient>
		<rect x="144.5" y="149.1" class="st56" width="3.1" height="2"/>
		
			<linearGradient id="SVGID_56_" gradientUnits="userSpaceOnUse" x1="50.8348" y1="189.4821" x2="744.8348" y2="-70.5178" gradientTransform="matrix(1 0 0 -1 0 302)">
			<stop  offset="0" style="stop-color:#00B9C7"/>
			<stop  offset="0.9991" style="stop-color:#6D24FF"/>
		</linearGradient>
		<rect x="149.6" y="149.1" class="st57" width="3.1" height="2"/>
		
			<linearGradient id="SVGID_57_" gradientUnits="userSpaceOnUse" x1="51.4625" y1="191.1576" x2="745.4625" y2="-68.8424" gradientTransform="matrix(1 0 0 -1 0 302)">
			<stop  offset="0" style="stop-color:#00B9C7"/>
			<stop  offset="0.9991" style="stop-color:#6D24FF"/>
		</linearGradient>
		<rect x="154.7" y="149.1" class="st58" width="3.1" height="2"/>
		
			<linearGradient id="SVGID_58_" gradientUnits="userSpaceOnUse" x1="47.707" y1="181.1331" x2="741.7069" y2="-78.8669" gradientTransform="matrix(1 0 0 -1 0 302)">
			<stop  offset="0" style="stop-color:#00B9C7"/>
			<stop  offset="0.9991" style="stop-color:#6D24FF"/>
		</linearGradient>
		<rect x="137.3" y="154.2" class="st59" width="4.1" height="2"/>
		
			<linearGradient id="SVGID_59_" gradientUnits="userSpaceOnUse" x1="48.4701" y1="183.17" x2="742.47" y2="-76.83" gradientTransform="matrix(1 0 0 -1 0 302)">
			<stop  offset="0" style="stop-color:#00B9C7"/>
			<stop  offset="0.9991" style="stop-color:#6D24FF"/>
		</linearGradient>
		<rect x="143.5" y="154.2" class="st60" width="4.1" height="2"/>
		
			<linearGradient id="SVGID_60_" gradientUnits="userSpaceOnUse" x1="49.2209" y1="185.174" x2="743.2208" y2="-74.826" gradientTransform="matrix(1 0 0 -1 0 302)">
			<stop  offset="0" style="stop-color:#00B9C7"/>
			<stop  offset="0.9991" style="stop-color:#6D24FF"/>
		</linearGradient>
		<rect x="149.6" y="154.2" class="st61" width="4.1" height="2"/>
		
			<linearGradient id="SVGID_61_" gradientUnits="userSpaceOnUse" x1="49.9717" y1="187.1781" x2="743.9716" y2="-72.8219" gradientTransform="matrix(1 0 0 -1 0 302)">
			<stop  offset="0" style="stop-color:#00B9C7"/>
			<stop  offset="0.9991" style="stop-color:#6D24FF"/>
		</linearGradient>
		<rect x="155.7" y="154.2" class="st62" width="4.1" height="2"/>
		
			<linearGradient id="SVGID_62_" gradientUnits="userSpaceOnUse" x1="46.36" y1="177.5378" x2="740.36" y2="-82.4622" gradientTransform="matrix(1 0 0 -1 0 302)">
			<stop  offset="0" style="stop-color:#00B9C7"/>
			<stop  offset="0.9991" style="stop-color:#6D24FF"/>
		</linearGradient>
		<rect x="137.3" y="158.3" class="st63" width="4.1" height="2"/>
		
			<linearGradient id="SVGID_63_" gradientUnits="userSpaceOnUse" x1="47.1231" y1="179.5746" x2="741.123" y2="-80.4254" gradientTransform="matrix(1 0 0 -1 0 302)">
			<stop  offset="0" style="stop-color:#00B9C7"/>
			<stop  offset="0.9991" style="stop-color:#6D24FF"/>
		</linearGradient>
		<rect x="143.5" y="158.3" class="st64" width="4.1" height="2"/>
		
			<linearGradient id="SVGID_64_" gradientUnits="userSpaceOnUse" x1="47.8739" y1="181.5787" x2="741.8738" y2="-78.4213" gradientTransform="matrix(1 0 0 -1 0 302)">
			<stop  offset="0" style="stop-color:#00B9C7"/>
			<stop  offset="0.9991" style="stop-color:#6D24FF"/>
		</linearGradient>
		<rect x="149.6" y="158.3" class="st65" width="4.1" height="2"/>
		
			<linearGradient id="SVGID_65_" gradientUnits="userSpaceOnUse" x1="48.6246" y1="183.5827" x2="742.6246" y2="-76.4173" gradientTransform="matrix(1 0 0 -1 0 302)">
			<stop  offset="0" style="stop-color:#00B9C7"/>
			<stop  offset="0.9991" style="stop-color:#6D24FF"/>
		</linearGradient>
		<rect x="155.7" y="158.3" class="st66" width="4.1" height="2"/>
		
			<linearGradient id="SVGID_66_" gradientUnits="userSpaceOnUse" x1="45.013" y1="173.9424" x2="739.013" y2="-86.0576" gradientTransform="matrix(1 0 0 -1 0 302)">
			<stop  offset="0" style="stop-color:#00B9C7"/>
			<stop  offset="0.9991" style="stop-color:#6D24FF"/>
		</linearGradient>
		<rect x="137.3" y="162.4" class="st67" width="4.1" height="2"/>
		
			<linearGradient id="SVGID_67_" gradientUnits="userSpaceOnUse" x1="45.7761" y1="175.9793" x2="739.7761" y2="-84.0207" gradientTransform="matrix(1 0 0 -1 0 302)">
			<stop  offset="0" style="stop-color:#00B9C7"/>
			<stop  offset="0.9991" style="stop-color:#6D24FF"/>
		</linearGradient>
		<rect x="143.5" y="162.4" class="st68" width="4.1" height="2"/>
		
			<linearGradient id="SVGID_68_" gradientUnits="userSpaceOnUse" x1="46.5269" y1="177.9833" x2="740.5269" y2="-82.0167" gradientTransform="matrix(1 0 0 -1 0 302)">
			<stop  offset="0" style="stop-color:#00B9C7"/>
			<stop  offset="0.9991" style="stop-color:#6D24FF"/>
		</linearGradient>
		<rect x="149.6" y="162.4" class="st69" width="4.1" height="2"/>
		
			<linearGradient id="SVGID_69_" gradientUnits="userSpaceOnUse" x1="47.2777" y1="179.9873" x2="741.2776" y2="-80.0127" gradientTransform="matrix(1 0 0 -1 0 302)">
			<stop  offset="0" style="stop-color:#00B9C7"/>
			<stop  offset="0.9991" style="stop-color:#6D24FF"/>
		</linearGradient>
		<rect x="155.7" y="162.4" class="st70" width="4.1" height="2"/>
		
			<linearGradient id="SVGID_70_" gradientUnits="userSpaceOnUse" x1="43.6702" y1="170.3455" x2="737.6702" y2="-89.6545" gradientTransform="matrix(1 0 0 -1 0 302)">
			<stop  offset="0" style="stop-color:#00B9C7"/>
			<stop  offset="0.9991" style="stop-color:#6D24FF"/>
		</linearGradient>
		<rect x="137.3" y="166.5" class="st71" width="4.1" height="2"/>
		
			<linearGradient id="SVGID_71_" gradientUnits="userSpaceOnUse" x1="44.4292" y1="172.3839" x2="738.4291" y2="-87.6161" gradientTransform="matrix(1 0 0 -1 0 302)">
			<stop  offset="0" style="stop-color:#00B9C7"/>
			<stop  offset="0.9991" style="stop-color:#6D24FF"/>
		</linearGradient>
		<rect x="143.5" y="166.5" class="st72" width="4.1" height="2"/>
		
			<linearGradient id="SVGID_72_" gradientUnits="userSpaceOnUse" x1="45.1799" y1="174.3879" x2="739.1799" y2="-85.6121" gradientTransform="matrix(1 0 0 -1 0 302)">
			<stop  offset="0" style="stop-color:#00B9C7"/>
			<stop  offset="0.9991" style="stop-color:#6D24FF"/>
		</linearGradient>
		<rect x="149.6" y="166.5" class="st73" width="4.1" height="2"/>
		
			<linearGradient id="SVGID_73_" gradientUnits="userSpaceOnUse" x1="45.9307" y1="176.392" x2="739.9307" y2="-83.6081" gradientTransform="matrix(1 0 0 -1 0 302)">
			<stop  offset="0" style="stop-color:#00B9C7"/>
			<stop  offset="0.9991" style="stop-color:#6D24FF"/>
		</linearGradient>
		<rect x="155.7" y="166.5" class="st74" width="4.1" height="2"/>
		
			<linearGradient id="SVGID_74_" gradientUnits="userSpaceOnUse" x1="42.319" y1="166.7517" x2="736.319" y2="-93.2483" gradientTransform="matrix(1 0 0 -1 0 302)">
			<stop  offset="0" style="stop-color:#00B9C7"/>
			<stop  offset="0.9991" style="stop-color:#6D24FF"/>
		</linearGradient>
		<rect x="137.3" y="170.6" class="st75" width="4.1" height="2"/>
		
			<linearGradient id="SVGID_75_" gradientUnits="userSpaceOnUse" x1="43.0821" y1="168.7885" x2="737.0821" y2="-91.2115" gradientTransform="matrix(1 0 0 -1 0 302)">
			<stop  offset="0" style="stop-color:#00B9C7"/>
			<stop  offset="0.9991" style="stop-color:#6D24FF"/>
		</linearGradient>
		<rect x="143.5" y="170.6" class="st76" width="4.1" height="2"/>
		
			<linearGradient id="SVGID_76_" gradientUnits="userSpaceOnUse" x1="43.8329" y1="170.7925" x2="737.8329" y2="-89.2074" gradientTransform="matrix(1 0 0 -1 0 302)">
			<stop  offset="0" style="stop-color:#00B9C7"/>
			<stop  offset="0.9991" style="stop-color:#6D24FF"/>
		</linearGradient>
		<rect x="149.6" y="170.6" class="st77" width="4.1" height="2"/>
		
			<linearGradient id="SVGID_77_" gradientUnits="userSpaceOnUse" x1="44.5837" y1="172.7966" x2="738.5837" y2="-87.2034" gradientTransform="matrix(1 0 0 -1 0 302)">
			<stop  offset="0" style="stop-color:#00B9C7"/>
			<stop  offset="0.9991" style="stop-color:#6D24FF"/>
		</linearGradient>
		<rect x="155.7" y="170.6" class="st78" width="4.1" height="2"/>
		
			<linearGradient id="SVGID_78_" gradientUnits="userSpaceOnUse" x1="55.0766" y1="200.8043" x2="749.0765" y2="-59.1957" gradientTransform="matrix(1 0 0 -1 0 302)">
			<stop  offset="0" style="stop-color:#00B9C7"/>
			<stop  offset="0.9991" style="stop-color:#6D24FF"/>
		</linearGradient>
		<path class="st79" d="M105.7,130.8h11.2c0.6,0,1-0.4,1-1v-11.2h34.7v14.3h2v-15.3c0-0.6-0.4-1-1-1h-36.7c-0.1,0-0.2,0-0.3,0.1
			h-0.1c-0.1,0.1-0.2,0.1-0.3,0.2L104,129c-0.1,0.1-0.1,0.2-0.2,0.3v0.1c0,0.1-0.1,0.2-0.1,0.3V141h2
			C105.7,141,105.7,130.8,105.7,130.8z M115.9,128.7h-8.8l8.8-8.8V128.7z"/>
		
			<linearGradient id="SVGID_79_" gradientUnits="userSpaceOnUse" x1="42.1685" y1="166.3496" x2="736.1685" y2="-93.6504" gradientTransform="matrix(1 0 0 -1 0 302)">
			<stop  offset="0" style="stop-color:#00B9C7"/>
			<stop  offset="0.9991" style="stop-color:#6D24FF"/>
		</linearGradient>
		<path class="st80" d="M129.2,160.4H118v-14.3c0-0.6-0.4-1-1-1h-12.2c-0.6,0-1,0.4-1,1v30.6c0,0.6,0.4,1,1,1h24.5c0.6,0,1-0.4,1-1
			v-15.3C130.2,160.8,129.8,160.4,129.2,160.4L129.2,160.4z M105.7,162.4h10.2v3.1h-10.2V162.4z M115.9,160.4h-10.2v-3.1h10.2V160.4
			z M115.9,155.3h-10.2v-3.1h10.2V155.3z M105.7,167.5h10.2v3.1h-10.2V167.5z M117.9,167.5h10.2v3.1h-10.2
			C117.9,170.6,117.9,167.5,117.9,167.5z M128.1,165.5h-10.2v-3.1h10.2V165.5z M105.7,147.1h10.2v3.1h-10.2V147.1z M105.7,172.6
			h10.2v3.1h-10.2V172.6z M128.1,175.7h-10.2v-3.1h10.2V175.7z"/>
		
			<linearGradient id="SVGID_80_" gradientUnits="userSpaceOnUse" x1="59.2293" y1="211.889" x2="753.2293" y2="-48.111" gradientTransform="matrix(1 0 0 -1 0 302)">
			<stop  offset="0" style="stop-color:#00B9C7"/>
			<stop  offset="0.9991" style="stop-color:#6D24FF"/>
		</linearGradient>
		<rect x="142.4" y="121.6" class="st81" width="7.1" height="2"/>
		
			<linearGradient id="SVGID_81_" gradientUnits="userSpaceOnUse" x1="56.8707" y1="205.5934" x2="750.8707" y2="-54.4066" gradientTransform="matrix(1 0 0 -1 0 302)">
			<stop  offset="0" style="stop-color:#00B9C7"/>
			<stop  offset="0.9991" style="stop-color:#6D24FF"/>
		</linearGradient>
		<rect x="131.2" y="126.7" class="st82" width="18.4" height="2"/>
		
			<linearGradient id="SVGID_82_" gradientUnits="userSpaceOnUse" x1="53.3728" y1="196.2566" x2="747.3727" y2="-63.7434" gradientTransform="matrix(1 0 0 -1 0 302)">
			<stop  offset="0" style="stop-color:#00B9C7"/>
			<stop  offset="0.9991" style="stop-color:#6D24FF"/>
		</linearGradient>
		<rect x="148.6" y="141" class="st83" width="3.1" height="2"/>
	</g>
</g>
<g>
	<g>
		
			<linearGradient id="SVGID_83_" gradientUnits="userSpaceOnUse" x1="60.6055" y1="73.0272" x2="695.6055" y2="458.0272" gradientTransform="matrix(1 0 0 -1 0 302)">
			<stop  offset="0" style="stop-color:#0047BF"/>
			<stop  offset="1" style="stop-color:#0047FF"/>
		</linearGradient>
		<path class="st84" d="M189.2,155.6l1.3-3.7c0.6,0.3,1.4,0.7,2.4,0.9c0.9,0.3,1.8,0.4,2.5,0.4c1,0,1.8-0.2,2.3-0.5s0.8-0.8,0.8-1.4
			c0-0.4-0.2-0.7-0.6-1c-0.4-0.3-1.1-0.8-2-1.3c-0.2-0.1-0.5-0.3-0.9-0.5c-1.4-0.8-2.4-1.5-3.2-2s-1.5-1.2-2-2
			c-0.6-0.8-0.9-1.7-0.9-2.8s0.3-2,0.9-2.9c0.6-0.8,1.4-1.5,2.5-2s2.4-0.7,3.9-0.7c1,0,2,0.1,3.1,0.4c1.1,0.3,2,0.7,2.8,1.2
			l-1.4,3.4c-1-0.4-1.8-0.7-2.4-0.8c-0.6-0.2-1.3-0.2-2-0.2s-1.3,0.2-1.8,0.5s-0.7,0.7-0.7,1.3c0,0.4,0.2,0.8,0.6,1.2
			c0.4,0.3,1,0.7,1.9,1.2c0.3,0.1,0.6,0.3,1,0.5c1.4,0.8,2.5,1.5,3.3,2.1s1.4,1.2,2,2s0.9,1.7,0.9,2.8s-0.3,2.1-0.9,3
			s-1.5,1.6-2.7,2.1s-2.6,0.8-4.2,0.8c-0.9,0-2.1-0.2-3.3-0.5S189.9,156,189.2,155.6z"/>
		
			<linearGradient id="SVGID_84_" gradientUnits="userSpaceOnUse" x1="64.5427" y1="66.5334" x2="699.5427" y2="451.5334" gradientTransform="matrix(1 0 0 -1 0 302)">
			<stop  offset="0" style="stop-color:#0047BF"/>
			<stop  offset="1" style="stop-color:#0047FF"/>
		</linearGradient>
		<path class="st85" d="M213.3,136.5v20.4h-4.7v-20.4H213.3z"/>
		
			<linearGradient id="SVGID_85_" gradientUnits="userSpaceOnUse" x1="69.5423" y1="58.2874" x2="704.5423" y2="443.2874" gradientTransform="matrix(1 0 0 -1 0 302)">
			<stop  offset="0" style="stop-color:#0047BF"/>
			<stop  offset="1" style="stop-color:#0047FF"/>
		</linearGradient>
		<path class="st86" d="M234.3,146.1l-3.3,4.5l-1.9,0.3l-4.1-5.1v11.1h-4.7v-20.4h3.1l6.5,8.6l5.9-8.6h3v20.4h-4.7v-10.8H234.3z"/>
		
			<linearGradient id="SVGID_86_" gradientUnits="userSpaceOnUse" x1="75.5551" y1="48.3702" x2="710.5551" y2="433.3702" gradientTransform="matrix(1 0 0 -1 0 302)">
			<stop  offset="0" style="stop-color:#0047BF"/>
			<stop  offset="1" style="stop-color:#0047FF"/>
		</linearGradient>
		<path class="st87" d="M245.7,136.5h4.7V149c0,1.4,0.4,2.5,1.1,3.3c0.7,0.7,1.7,1.1,3,1.1c1.2,0,2.2-0.4,3-1.1
			c0.7-0.8,1.1-1.8,1.1-3.3v-12.5h4.7v12.8c0,1.6-0.4,3-1.1,4.2s-1.8,2.1-3.1,2.8c-1.3,0.7-2.9,1-4.6,1c-1.7,0-3.3-0.3-4.6-1
			s-2.4-1.6-3.1-2.8c-0.7-1.2-1.1-2.6-1.1-4.2L245.7,136.5z"/>
		
			<linearGradient id="SVGID_87_" gradientUnits="userSpaceOnUse" x1="82.3099" y1="37.2292" x2="717.3099" y2="422.2292" gradientTransform="matrix(1 0 0 -1 0 302)">
			<stop  offset="0" style="stop-color:#0047BF"/>
			<stop  offset="1" style="stop-color:#0047FF"/>
		</linearGradient>
		<path class="st88" d="M274.7,153.2h8.9l0.5,3.7H270v-20.4h4.7V153.2z"/>
		
			<linearGradient id="SVGID_88_" gradientUnits="userSpaceOnUse" x1="88.609" y1="26.8397" x2="723.609" y2="411.8397" gradientTransform="matrix(1 0 0 -1 0 302)">
			<stop  offset="0" style="stop-color:#0047BF"/>
			<stop  offset="1" style="stop-color:#0047FF"/>
		</linearGradient>
		<path class="st89" d="M286.8,156.9l7.8-20.4h4.4l7.7,20.2l-4.6,0.5l-1.6-4.7h-7.4l-1.6,4.4H286.8z M294.4,148.8h4.7l-2.4-6.3
			L294.4,148.8z"/>
		
			<linearGradient id="SVGID_89_" gradientUnits="userSpaceOnUse" x1="92.4567" y1="20.4935" x2="727.4567" y2="405.4934" gradientTransform="matrix(1 0 0 -1 0 302)">
			<stop  offset="0" style="stop-color:#0047BF"/>
			<stop  offset="1" style="stop-color:#0047FF"/>
		</linearGradient>
		<path class="st90" d="M309.4,136.5h17l0.6,3.7h-6.8v16.7h-4.7v-16.7h-6.1V136.5z"/>
		
			<linearGradient id="SVGID_90_" gradientUnits="userSpaceOnUse" x1="99.0152" y1="9.6762" x2="734.0153" y2="394.6762" gradientTransform="matrix(1 0 0 -1 0 302)">
			<stop  offset="0" style="stop-color:#0047BF"/>
			<stop  offset="1" style="stop-color:#0047FF"/>
		</linearGradient>
		<path class="st91" d="M345.9,153.2l0.6,3.7h-14.6v-20.4h12.9l0.6,3.7h-8.8v4.6h6.5l0.6,3.7h-7.1v4.8h9.3V153.2z"/>
		
			<linearGradient id="SVGID_91_" gradientUnits="userSpaceOnUse" x1="103.9394" y1="1.5545" x2="738.9395" y2="386.5544" gradientTransform="matrix(1 0 0 -1 0 302)">
			<stop  offset="0" style="stop-color:#0047BF"/>
			<stop  offset="1" style="stop-color:#0047FF"/>
		</linearGradient>
		<path class="st92" d="M351.3,136.5h4.7V149c0,1.4,0.4,2.5,1.1,3.3c0.7,0.7,1.7,1.1,3,1.1c1.2,0,2.2-0.4,3-1.1s1.1-1.8,1.1-3.3
			v-12.5h4.7v12.8c0,1.6-0.4,3-1.1,4.2s-1.8,2.1-3.1,2.8c-1.3,0.7-2.9,1-4.6,1s-3.3-0.3-4.6-1c-1.3-0.7-2.4-1.6-3.1-2.8
			s-1.1-2.6-1.1-4.2V136.5z"/>
		
			<linearGradient id="SVGID_92_" gradientUnits="userSpaceOnUse" x1="111.1599" y1="-10.3546" x2="746.1599" y2="374.6454" gradientTransform="matrix(1 0 0 -1 0 302)">
			<stop  offset="0" style="stop-color:#0047BF"/>
			<stop  offset="1" style="stop-color:#0047FF"/>
		</linearGradient>
		<path class="st93" d="M375.6,156.9v-20.4h7.5c2.4,0,4.4,0.6,5.9,1.7c1.5,1.1,2.3,2.8,2.3,5c0,1.2-0.3,2.3-0.8,3.2
			c-0.6,0.9-1.3,1.6-2.3,2.2l4.8,8.4h-5.2l-3.8-7.1h-3.7v7.1L375.6,156.9L375.6,156.9z M383,140.3h-2.7v5.8h2.8c1,0,1.8-0.3,2.5-0.8
			c0.6-0.5,0.9-1.2,0.9-2.1c0-1-0.3-1.7-0.9-2.2S384.1,140.3,383,140.3z"/>
		
			<linearGradient id="SVGID_93_" gradientUnits="userSpaceOnUse" x1="118.6802" y1="-22.7582" x2="753.6802" y2="362.2418" gradientTransform="matrix(1 0 0 -1 0 302)">
			<stop  offset="0" style="stop-color:#0047BF"/>
			<stop  offset="1" style="stop-color:#0047FF"/>
		</linearGradient>
		<path class="st94" d="M415.1,156.9h-8.5v-20.4h8.5c2,0,3.8,0.4,5.2,1.3s2.5,2,3.2,3.6c0.7,1.5,1.1,3.3,1.1,5.2
			c0,2.1-0.4,3.9-1.2,5.5c-0.8,1.5-1.9,2.7-3.3,3.6C418.8,156.5,417.1,156.9,415.1,156.9z M415.1,140.3h-3.8v12.8h3.6
			c1.5,0,2.7-0.5,3.6-1.6s1.3-2.7,1.3-4.9c0-1.9-0.4-3.5-1.2-4.6S416.7,140.3,415.1,140.3z"/>
		
			<linearGradient id="SVGID_94_" gradientUnits="userSpaceOnUse" x1="125.4643" y1="-33.9476" x2="760.4643" y2="351.0524" gradientTransform="matrix(1 0 0 -1 0 302)">
			<stop  offset="0" style="stop-color:#0047BF"/>
			<stop  offset="1" style="stop-color:#0047FF"/>
		</linearGradient>
		<path class="st95" d="M444.3,153.2l0.6,3.7h-14.6v-20.4h12.9l0.6,3.7H435v4.6h6.5l0.6,3.7H435v4.8h9.3V153.2z"/>
		
			<linearGradient id="SVGID_95_" gradientUnits="userSpaceOnUse" x1="46.7945" y1="95.8065" x2="681.7944" y2="480.8065" gradientTransform="matrix(1 0 0 -1 0 302)">
			<stop  offset="0" style="stop-color:#0047BF"/>
			<stop  offset="1" style="stop-color:#0047FF"/>
		</linearGradient>
		<path class="st96" d="M190.9,191c-12.1,15.1-30.6,24.8-51.5,24.8c-36.3,0-65.8-29.5-65.8-65.8s29.5-65.8,65.8-65.8
			c20.8,0,39.4,9.7,51.5,24.8h5.3c-12.7-17.6-33.4-29-56.7-29c-38.7,0-70,31.3-70,70s31.3,70,70,70c23.3,0,44-11.4,56.7-29H190.9z"
			/>
		<g>
			
				<linearGradient id="SVGID_96_" gradientUnits="userSpaceOnUse" x1="47.3681" y1="94.8605" x2="682.368" y2="479.8605" gradientTransform="matrix(1 0 0 -1 0 302)">
				<stop  offset="0" style="stop-color:#0047BF"/>
				<stop  offset="1" style="stop-color:#0047FF"/>
			</linearGradient>
			<path class="st97" d="M168.7,143.8c-0.1-1.7-2.1-3-6.1-4c0.1-0.3,0.2-0.6,0.2-0.9V132l0,0c-0.4-5.7-23.8-5.9-26.5-5.9
				s-26.2,0.2-26.5,5.9l0,0v6.9c0,1.9,2.4,3.3,6,4.4c0,0.2-0.1,0.3-0.1,0.5l0,0v6.9c-3.9,1-5.8,2.3-5.9,3.9l0,0v6.9
				c0,1.3,1.2,2.4,3.1,3.3c-0.1,0.2-0.1,0.4-0.1,0.6l0,0v6.9c0,3.3,7.4,5.3,15.5,6.2c0.1,0,0.1,0,0.2,0c0,0,0,0,0.1,0
				c1.6,0.2,3.2,0.3,4.8,0.4h0.1c0,0,0,0,0.1,0c2,0.1,4,0.2,5.8,0.2s3.8-0.1,5.8-0.2c0,0,0,0,0.1,0h0.1c1.6-0.1,3.2-0.2,4.8-0.4
				c0,0,0,0,0.1,0s0.1,0,0.2,0c8.2-1,15.5-3,15.5-6.2v-6.9l0,0c-0.1-1.2-1.1-2.2-3.1-3.1c0.1-0.3,0.2-0.6,0.2-0.9V155
				c3.5-1.1,5.9-2.5,5.9-4.4L168.7,143.8L168.7,143.8z M160.8,161.8l-0.3,0.3c-0.5,0.5-1.4,0.9-2.5,1.4v-4.7c1.2-0.4,2.2-0.9,3-1.4
				v4.1C160.9,161.5,160.9,161.6,160.8,161.8L160.8,161.8z M138.8,166.3c-0.1,0-0.3,0-0.4,0c-0.4,0-0.7,0-1.1,0v-4.9
				c0.3,0,0.5,0,0.8,0h0.2c1,0,2,0,3-0.1v4.9c-0.2,0-0.4,0-0.6,0C140,166.3,139.4,166.3,138.8,166.3L138.8,166.3z M134.5,166.3
				c-0.5,0-0.9,0-1.3,0H133c-0.5,0-1.1,0-1.6-0.1v-4.9c1,0,2,0.1,3,0.1c0.1,0,0.1,0,0.2,0c0.3,0,0.5,0,0.8,0v4.9c-0.2,0-0.4,0-0.6,0
				C134.7,166.3,134.6,166.3,134.5,166.3L134.5,166.3z M116.8,164.1C116.8,164.1,116.7,164.1,116.8,164.1l-0.1-4.8
				c0.9,0.2,1.9,0.5,2.9,0.7v4.8c-0.9-0.2-1.7-0.4-2.5-0.6C117,164.2,116.9,164.1,116.8,164.1L116.8,164.1z M137.5,172.2
				c0.3,0,0.5,0,0.8,0v4.9c-1.4,0-2.7,0-3.9-0.1v-4.9C135.4,172.1,136.4,172.2,137.5,172.2C137.4,172.2,137.4,172.2,137.5,172.2
				L137.5,172.2z M141.2,172.2c1,0,2-0.1,3-0.1v4.9c-1.3,0.1-2.6,0.1-3.9,0.1v-4.9C140.6,172.2,140.8,172.2,141.2,172.2L141.2,172.2
				L141.2,172.2z M149.1,171.8v4.9c-0.9,0.1-1.9,0.2-2.9,0.3v-5C147.2,172,148.1,171.9,149.1,171.8L149.1,171.8z M151.1,171.6
				c1-0.1,2-0.3,2.9-0.4v4.8c-0.9,0.2-1.9,0.3-2.9,0.5V171.6z M156,170.8c1-0.2,2-0.4,2.9-0.7v4.7c-0.9,0.3-1.9,0.5-2.9,0.7V170.8z
				 M122.6,170.8v4.8c-1.1-0.2-2.1-0.5-2.9-0.7v-4.7C120.6,170.4,121.5,170.6,122.6,170.8L122.6,170.8z M124.5,171.2
				c0.9,0.2,1.9,0.3,2.9,0.4v4.9c-1-0.1-2-0.3-2.9-0.5V171.2z M129.5,171.8c1,0.1,2,0.2,2.9,0.2v4.9c-1-0.1-2-0.2-2.9-0.3V171.8z
				 M127,165.9c-0.1,0-0.2,0-0.3,0c-0.1,0-0.1,0-0.2,0V161c1,0.1,1.9,0.2,2.9,0.2v4.9C128.6,166.1,127.8,166,127,165.9L127,165.9z
				 M124.5,160.8v4.9c-1-0.1-2-0.3-2.9-0.5v-4.8C122.6,160.5,123.5,160.6,124.5,160.8L124.5,160.8z M143.9,166.1c-0.2,0-0.4,0-0.7,0
				v-4.9c1-0.1,2-0.1,3-0.2v4.9c-0.6,0.1-1.2,0.1-1.9,0.2C144.1,166,144,166.1,143.9,166.1L143.9,166.1z M148.1,165.6v-4.9
				c1-0.1,2-0.3,3-0.4v4.8C150.1,165.3,149.2,165.5,148.1,165.6L148.1,165.6z M153,160c1-0.2,2-0.4,3-0.7v4.7
				c-0.9,0.3-1.9,0.5-3,0.7V160z M139.6,155.5c-0.7,0-1.5,0-2.2-0.1h-0.1v-4.9c1,0,2,0.1,3,0.1c0.1,0,0.1,0,0.2,0c0.3,0,0.5,0,0.8,0
				v4.9c-0.5,0-1,0-1.4,0C139.7,155.5,139.7,155.5,139.6,155.5L139.6,155.5z M116.7,141.5v-4.7c0.9,0.2,1.9,0.5,2.9,0.7v4.8
				c-0.1,0-0.2-0.1-0.4-0.1c-0.5-0.1-1-0.2-1.5-0.4C117.4,141.7,117,141.6,116.7,141.5L116.7,141.5z M134.5,138.8c0.3,0,0.5,0,0.8,0
				v4.9c-1.3,0-2.6,0-3.9-0.1v-4.9C132.4,138.7,133.4,138.8,134.5,138.8C134.4,138.8,134.5,138.8,134.5,138.8L134.5,138.8z
				 M138.3,138.8c1,0,2,0,3-0.1v4.9c-0.2,0-0.3,0-0.5,0l0,0c-0.7,0-1.3,0-2,0.1c-0.1,0-0.2,0-0.3,0c-0.4,0-0.7,0-1.1,0v-4.9
				c0.3,0,0.5,0,0.8,0H138.3z M160.7,139.3L160.7,139.3l-0.4,0.3c-0.5,0.4-1.3,0.8-2.3,1.2v-4.7c1.2-0.4,2.2-0.9,3-1.3v4.1
				C160.9,139,160.8,139.2,160.7,139.3L160.7,139.3z M148.1,143v-4.9c1-0.1,2-0.3,3-0.4v4.8C150.1,142.7,149.2,142.9,148.1,143
				L148.1,143z M153,142.2v-4.8c1-0.2,2-0.4,3-0.7v4.7C155.1,141.7,154.1,142,153,142.2L153,142.2z M146.2,138.4v4.9
				c-1,0.1-1.9,0.2-3,0.3v-4.9C144.2,138.6,145.2,138.5,146.2,138.4L146.2,138.4z M126.5,143.3v-4.9c1,0.1,1.9,0.2,2.9,0.2v4.9
				C128.5,143.4,127.5,143.4,126.5,143.3L126.5,143.3z M124.5,138.2v4.9c-0.2,0-0.4,0-0.6-0.1c-0.1,0-0.2,0-0.4-0.1
				c-0.6-0.1-1.1-0.2-1.7-0.3c-0.1,0-0.2,0-0.3-0.1v-4.8C122.6,137.9,123.5,138,124.5,138.2L124.5,138.2z M135.1,155.3
				c-0.1,0-0.3,0-0.4,0c-0.6,0-1.2-0.1-1.8-0.2c-0.1,0-0.3,0-0.4,0h-0.1v-4.9c1,0.1,2,0.2,3,0.2v4.9
				C135.3,155.3,135.2,155.3,135.1,155.3L135.1,155.3z M128.6,154.6c-0.4-0.1-0.8-0.1-1.1-0.2v-4.8c1,0.2,1.9,0.3,3,0.4v4.9
				C129.8,154.7,129.3,154.7,128.6,154.6C128.7,154.6,128.6,154.6,128.6,154.6L128.6,154.6z M125.5,149.2v4.8
				c-1.1-0.2-2.1-0.5-3-0.7v-4.7C123.5,148.8,124.5,149,125.5,149.2L125.5,149.2z M120.6,147.9v4.7c-1.5-0.6-2.5-1.2-2.9-1.7
				l-0.1-0.1v-0.1v-4.1C118.5,147.1,119.4,147.5,120.6,147.9L120.6,147.9z M144.2,150.6c1,0,2,0,3-0.1v4.9c-1.3,0.1-2.6,0.1-3.9,0.1
				v-4.9C143.6,150.6,143.8,150.6,144.2,150.6L144.2,150.6z M156.9,154.4c-0.4,0.1-0.9,0.1-1.3,0.2c-0.3,0-0.5,0.1-0.8,0.1
				c-0.2,0-0.5,0.1-0.8,0.1V150c1-0.1,2-0.3,2.9-0.4L156.9,154.4L156.9,154.4L156.9,154.4z M150.2,155.2c-0.4,0-0.7,0-1.1,0.1v-4.9
				c1-0.1,2-0.1,2.9-0.2v4.9c-0.6,0.1-1.1,0.1-1.7,0.2C150.3,155.2,150.3,155.2,150.2,155.2L150.2,155.2z M161.4,153.4
				c-0.5,0.1-1,0.3-1.5,0.4c-0.2,0.1-0.5,0.1-0.7,0.2c-0.1,0-0.2,0-0.2,0v-4.8c1-0.2,2-0.4,2.9-0.7v4.7
				C161.7,153.3,161.6,153.3,161.4,153.4L161.4,153.4z M166.8,143.8c-0.1,0.7-1.6,1.6-4.3,2.4c-3.5,1.1-8.9,2.1-15.8,2.4
				c-0.4,0-0.7,0-1.1,0c-0.3,0-0.6,0-0.9,0c-0.8,0-1.6,0-2.5,0c-0.8,0-1.7,0-2.5,0c-0.3,0-0.6,0-0.9,0c-0.4,0-0.7,0-1.1,0
				c-6.9-0.3-12.3-1.3-15.8-2.4c-2.7-0.8-4.2-1.7-4.3-2.4c0,0,0,0,0-0.1c0.1,0,0.1,0,0.2,0c0.4,0.1,0.8,0.2,1.2,0.3
				c2,0.4,4.1,0.8,6.4,1l0,0l0,0c1.6,0.2,3.2,0.3,4.9,0.4l0,0l0,0c1.2,0.1,2.4,0.1,3.7,0.1c0.8,0,1.5,0,2.2,0c0.5,0,1,0,1.6,0
				c7.1-0.1,13.8-1,18.4-2.3c0.2-0.1,0.4-0.1,0.6-0.2c0.1,0,0.3-0.1,0.4-0.1c0.4-0.1,0.7-0.2,1-0.4c0.1,0,0.1,0,0.2-0.1
				c0.3-0.1,0.5-0.2,0.8-0.3c0.1,0,0.1-0.1,0.2-0.1c0.3-0.1,0.5-0.2,0.8-0.4c0.1-0.1,0.2-0.1,0.3-0.2c0.1-0.1,0.2-0.1,0.3-0.2
				c0.1,0,0.1-0.1,0.2-0.1C165.5,142.4,166.7,143.4,166.8,143.8L166.8,143.8z M136.3,128c16.2,0,24.4,2.5,24.5,4
				c-0.1,0.7-1.6,1.5-4.3,2.4c-3.5,1.1-8.9,2.1-15.8,2.4c-0.4,0-0.7,0-1.1,0c-0.3,0-0.6,0-0.9,0c-0.8,0-1.6,0-2.5,0s-1.7,0-2.5,0
				c-0.3,0-0.6,0-0.9,0c-0.4,0-0.7,0-1.1,0c-6.9-0.3-12.3-1.3-15.8-2.4c-2.7-0.8-4.2-1.7-4.3-2.4C111.9,130.6,120.1,128,136.3,128
				L136.3,128z M111.8,138.8v-4.1c0.8,0.5,1.8,0.9,2.9,1.3v4.7C112.8,140.1,111.8,139.4,111.8,138.8L111.8,138.8z M116.5,152.4
				C116.5,152.5,116.6,152.5,116.5,152.4c1.4,1.4,4.2,2.5,7.6,3.3c0.1,0,0.2,0,0.2,0.1c0.3,0.1,0.5,0.1,0.8,0.2
				c3.2,0.7,7,1.2,11.1,1.4l0,0l0,0c1.3,0.1,2.7,0.1,4.1,0.2c0.6,0,1.2,0,1.8,0c0.7,0,1.4,0,2.1,0c1.3,0,2.6-0.1,3.8-0.1l0,0l0,0
				c4.2-0.2,8-0.7,11.3-1.4c-0.7,0.4-1.7,0.8-2.9,1.1c-3.7,1.1-9.5,2.2-17,2.4c-0.2,0-0.4,0-0.7,0c-0.2,0-0.5,0-0.7,0
				c-0.6,0-1.2,0-1.9,0c-0.9,0-1.7,0-2.5,0c-0.3,0-0.6,0-0.9,0c-0.4,0-0.7,0-1.1,0c-6.9-0.3-12.3-1.3-15.8-2.4
				c-2.7-0.8-4.2-1.7-4.3-2.4C111.9,154.3,112.9,153.3,116.5,152.4L116.5,152.4z M111.8,161.4v-4.1c0.8,0.5,1.8,0.9,2.9,1.4v4.7
				l-0.6-0.2l0,0C112.6,162.6,111.8,161.9,111.8,161.4L111.8,161.4z M114.7,172.2v-4.1c0.8,0.5,1.8,0.9,2.9,1.4v4.7
				C115.8,173.5,114.7,172.8,114.7,172.2L114.7,172.2z M160.9,174.2v-4.7c1.2-0.4,2.2-0.9,2.9-1.4v4.1
				C163.8,172.8,162.8,173.5,160.9,174.2L160.9,174.2z M163.8,165.4c-0.1,0.7-1.6,1.5-4.3,2.4c-3.5,1.1-8.9,2.1-15.8,2.4
				c-0.4,0-0.7,0-1.1,0c-0.3,0-0.6,0-0.9,0c-0.8,0-1.6,0-2.5,0c-0.8,0-1.7,0-2.5,0c-0.3,0-0.6,0-0.9,0c-0.4,0-0.7,0-1.1,0
				c-6.9-0.3-12.3-1.3-15.8-2.4c-2.6-0.8-4.1-1.7-4.3-2.3c0.3,0.1,0.6,0.2,0.9,0.3h0.1c0.3,0.1,0.5,0.2,0.8,0.2
				c0.1,0,0.2,0.1,0.3,0.1c0.2,0,0.3,0.1,0.5,0.1c3.6,0.9,8.1,1.6,13.1,1.9l0,0c1.5,0.1,3.1,0.1,4.7,0.2c0.4,0,0.8,0,1.2,0
				c0.5,0,1.1,0,1.7,0c1.4,0,2.8-0.1,4.2-0.2l0,0l0,0c1.7-0.1,3.3-0.2,4.9-0.4l0,0c0,0,0,0,0.1,0c1.7-0.2,3.4-0.5,4.9-0.7
				c0.3-0.1,0.6-0.1,0.9-0.2c0.1,0,0.1,0,0.2,0c2.9-0.6,5.4-1.4,7.1-2.3c0.1-0.1,0.2-0.1,0.3-0.2c0.1-0.1,0.2-0.1,0.3-0.2
				c0.1-0.1,0.2-0.1,0.3-0.2C163.2,164.6,163.8,165.2,163.8,165.4L163.8,165.4z M163.8,152.6v-4.7c1.2-0.4,2.2-0.9,2.9-1.4v4.1
				C166.8,151.2,165.7,151.9,163.8,152.6L163.8,152.6z"/>
		</g>
	</g>
	<g>
		<linearGradient id="SVGID_97_" gradientUnits="userSpaceOnUse" x1="136.8271" y1="-52.6888" x2="771.8271" y2="332.3112">
			<stop  offset="0" style="stop-color:#0047BF"/>
			<stop  offset="1" style="stop-color:#0047FF"/>
		</linearGradient>
		<path class="st98" d="M460.7,157.9v-21.6h8c2.5,0,4.6,0.6,6.3,1.8c1.6,1.2,2.4,2.9,2.4,5.3c0,1.3-0.3,2.4-0.9,3.4
			c-0.6,1-1.4,1.7-2.4,2.3l5.1,8.9h-5.6l-4-7.5h-3.9v7.5H460.7z M468.5,140.3h-2.9v6.2h2.9c1.1,0,2-0.3,2.6-0.8c0.7-0.5,1-1.3,1-2.2
			c0-1.1-0.3-1.8-1-2.4C470.6,140.6,469.7,140.3,468.5,140.3z"/>
		<linearGradient id="SVGID_98_" gradientUnits="userSpaceOnUse" x1="143.3825" y1="-63.5009" x2="778.3824" y2="321.4991">
			<stop  offset="0" style="stop-color:#0047BF"/>
			<stop  offset="1" style="stop-color:#0047FF"/>
		</linearGradient>
		<path class="st99" d="M498.8,154l0.6,3.9h-15.5v-21.6h13.6l0.6,3.9h-9.3v4.9h6.9l0.6,3.9h-7.5v5.1H498.8z"/>
		<linearGradient id="SVGID_99_" gradientUnits="userSpaceOnUse" x1="150.4335" y1="-75.1306" x2="785.4335" y2="309.8694">
			<stop  offset="0" style="stop-color:#0047BF"/>
			<stop  offset="1" style="stop-color:#0047FF"/>
		</linearGradient>
		<path class="st100" d="M502.3,136.6l4.9-0.6l5.7,15.6l5.6-15.3h4.9l-8.2,21.6h-4.7L502.3,136.6z"/>
		<linearGradient id="SVGID_100_" gradientUnits="userSpaceOnUse" x1="155.298" y1="-83.1538" x2="790.298" y2="301.8462">
			<stop  offset="0" style="stop-color:#0047BF"/>
			<stop  offset="1" style="stop-color:#0047FF"/>
		</linearGradient>
		<path class="st101" d="M543.2,154l0.6,3.9h-15.5v-21.6h13.6l0.6,3.9h-9.3v4.9h6.9l0.6,3.9h-7.5v5.1H543.2z"/>
		<linearGradient id="SVGID_101_" gradientUnits="userSpaceOnUse" x1="161.5546" y1="-93.4732" x2="796.5546" y2="291.5268">
			<stop  offset="0" style="stop-color:#0047BF"/>
			<stop  offset="1" style="stop-color:#0047FF"/>
		</linearGradient>
		<path class="st102" d="M553.9,145v12.9h-5v-21.6h4.8l9.2,13.1v-13.1h5v21.6H563L553.9,145z"/>
		<linearGradient id="SVGID_102_" gradientUnits="userSpaceOnUse" x1="169.1589" y1="-106.0154" x2="804.1589" y2="278.9846">
			<stop  offset="0" style="stop-color:#0047BF"/>
			<stop  offset="1" style="stop-color:#0047FF"/>
		</linearGradient>
		<path class="st103" d="M574.6,136.3h5v13.3c0,1.5,0.4,2.7,1.2,3.5c0.8,0.8,1.8,1.2,3.1,1.2s2.4-0.4,3.1-1.2
			c0.8-0.8,1.2-1.9,1.2-3.4v-13.3h5v13.5c0,1.7-0.4,3.2-1.2,4.5c-0.8,1.3-1.9,2.3-3.3,3s-3,1-4.9,1c-1.8,0-3.5-0.3-4.9-1
			s-2.5-1.7-3.3-3s-1.1-2.8-1.1-4.5L574.6,136.3z"/>
	</g>
</g>
</svg>
