<?xml version="1.0" encoding="utf-8"?>
<!-- Generator: Adobe Illustrator 21.1.0, SVG Export Plug-In . SVG Version: 6.00 Build 0)  -->
<svg version="1.1" id="Calque_2" xmlns="http://www.w3.org/2000/svg" xmlns:xlink="http://www.w3.org/1999/xlink" x="0px" y="0px"
	 viewBox="0 0 300 100" style="enable-background:new 0 0 300 100;" xml:space="preserve">
<style type="text/css">
	.st0{fill:#FFFFFF;}
</style>
<g>
	<path class="st0" d="M50.3,63.7c0,1-0.5,1.5-1.5,1.5H45c-0.9,0-1.4-0.4-1.7-1.2L33.1,42.6c-0.5-1.1-1.4-2.8-1.7-4h-0.7
		c0.1,1.3,0.2,2.7,0.2,4v22.6h-3.9V36.5c0-1,0.5-1.5,1.5-1.5h3.6c0.9,0,1.4,0.4,1.7,1.2l9.9,20.9c0.6,1.2,1.4,2.9,2.1,4.4h0.7
		c-0.1-1.6-0.1-3.1-0.1-4.6V35h3.8V63.7z"/>
	<path class="st0" d="M76.6,54.6c0,8.2-2.7,11.2-10,11.2c-7.3,0-10-3-10-11.2c0-8.1,2.7-11.2,10-11.2C73.9,43.4,76.6,46.4,76.6,54.6
		z M60.4,54.6c0,6.2,1.5,8.1,6.1,8.1c4.6,0,6.2-1.8,6.2-8.1c0-6.2-1.5-8.1-6.2-8.1C61.9,46.5,60.4,48.4,60.4,54.6z"/>
	<path class="st0" d="M86,55.2c-3.5-0.8-4.8-2.5-4.8-6c0-4.9,2.5-6,8.3-5.9c2.8,0,6.3,0.3,9,0.7l-0.3,2.7c-2.7-0.1-5.4-0.2-8.1-0.2
		c-3.9,0-5.3,0-5.3,2.7c0,2.2,1.1,2.6,3.1,3.1l6.2,1.4c3.4,0.8,4.9,2.2,4.9,5.9c0,5.3-2.9,6.1-9.1,6.1c-1.5,0-4.7,0-8.4-0.6l0.3-2.7
		c2.1,0.1,4.6,0.2,7.4,0.2c4.8,0,6.3-0.4,6.3-3c0-2.1-1.3-2.5-3.4-3L86,55.2z"/>
	<path class="st0" d="M121,65.2l-2.3-9.2c-0.6-1.9-1.4-2.5-3.2-2.5l-4.7,0v11.8h-6.6V35c3.6-0.4,6.1-0.4,11.5-0.4
		c7.9,0,11.2,2,11.2,8.9c0,4.2-1.5,7-5.8,7.5v0.2c1.5,0.3,3.6,1.4,4.3,4.6l2.6,9.4H121z M115.7,48.3c3.5,0,4.6-1,4.6-4.3
		c0-3.4-1.1-4.2-4.6-4.2l-4.8,0v8.5H115.7z"/>
	<path class="st0" d="M137.8,56.6c0.4,3.2,1.8,4,5.1,4c2,0,5.1-0.2,8.1-0.5l0.6,4c-2.5,1.2-6.3,1.6-9.4,1.6
		c-8.2,0-11.3-3.3-11.3-11.3c0-8.5,3.2-11.4,11-11.4c7.4,0,10.2,2.6,10.2,7.5c0,3.9-1.9,6-6.6,6H137.8z M143.8,52.7c1.8,0,2-1,2-2.2
		c0-2-0.9-2.7-3.7-2.7c-3.2,0-4.3,0.9-4.5,4.9H143.8z"/>
	<path class="st0" d="M174.9,65.2h-19.5v-4.6l11.9-12.3h-11.7v-4.6h19v4.6l-11.9,12.3h12.1V65.2z"/>
	<path class="st0" d="M200.5,54.4c0,8.3-3,11.3-11.1,11.3c-8.1,0-11.1-3.1-11.1-11.3c0-8.3,3-11.4,11.1-11.4
		C197.5,43,200.5,46.1,200.5,54.4z M185.1,54.4c0,5.2,0.9,6.5,4.3,6.5c3.3,0,4.3-1.3,4.3-6.5c0-5.3-1-6.6-4.3-6.6
		C186,47.9,185.1,49.2,185.1,54.4z"/>
</g>
<g transform="translate(1 1)">
	<path class="st0" d="M236.9,67.2c-0.5,0-12-0.2-15.7-0.5c-0.2-0.1-0.4-0.1-0.6-0.1c-1.3-0.2-3.2-0.4-4.9-2.3c-1.5-1.7-2-5.2-2-5.3
		c0-0.1-0.5-4.1-0.5-8.1v-3.7c0-4,0.5-8.1,0.5-8.1c0-0.2,0.5-3.7,2.1-5.4c1.7-2,3.7-2.2,4.8-2.3h0.2c6.3-0.6,16-0.7,16.1-0.7
		c0.2,0,9.7,0.1,16.2,0.6h0.3c1,0.1,3,0.3,4.8,2.3c1.5,1.7,2,5.2,2,5.3l0,0c0,0.1,0.5,4.1,0.5,8.1v3.7c0,4-0.5,8.1-0.5,8.1
		c0,0.2-0.5,3.7-2.1,5.4c-1.7,2-3.7,2.2-4.8,2.3H253C246.6,67.2,236.9,67.2,236.9,67.2z M236.9,32.4c-0.1,0-9.7,0.1-16,0.6h-0.2
		c-1,0.1-2.5,0.2-3.9,1.8c-1,1.1-1.5,3.6-1.6,4.5c0,0-0.5,4-0.5,7.9v3.7c0,3.9,0.5,7.8,0.5,7.9c0.1,0.9,0.6,3.4,1.6,4.4
		c1.3,1.4,2.9,1.7,4,1.7c0.2,0,0.5,0.1,0.7,0.1c3.5,0.4,15.4,0.6,15.5,0.6s9.7,0,16-0.5h0.2c0.9-0.1,2.5-0.2,3.8-1.8
		c1-1.1,1.5-3.6,1.7-4.5c0,0,0.5-4,0.5-7.9v-3.7c0-3.8-0.4-7.8-0.5-7.9c-0.2-0.9-0.6-3.4-1.6-4.5c-1.3-1.6-2.9-1.7-3.8-1.8h-0.3
		C246.5,32.4,236.9,32.4,236.9,32.4z"/>
	<path class="st0" d="M231.3,59c-0.2,0-0.2,0-0.4-0.1c-0.2-0.2-0.4-0.4-0.4-0.7V41c0-0.3,0.2-0.6,0.4-0.7s0.6-0.2,0.8,0l15.1,8.8
		c0.2,0.2,0.4,0.4,0.4,0.7s-0.2,0.6-0.4,0.7l-15.1,8.4C231.6,59,231.5,59,231.3,59z M232.1,42.3v14.5l12.7-7.1L232.1,42.3z"/>
</g>
<path class="st0" d="M211.1,21.7c7.4-7.4,17.6-12,28.9-12c22.5,0,40.8,18.3,40.8,40.8S262.5,91.3,240,91.3
	c-11.3,0-21.5-4.6-28.9-11.9H206c8.2,9.6,20.4,15.7,34,15.7c24.6,0,44.6-20,44.6-44.6S264.6,5.9,240,5.9c-13.6,0-25.8,6.1-34,15.8
	H211.1z"/>
</svg>
